<svg width="500" height="262" viewBox="0 0 500 262" fill="none" xmlns="http://www.w3.org/2000/svg">
<g clip-path="url(#clip0_5053_18499)">
<path d="M480.781 66.8988C491.392 66.8988 500 58.2914 500 47.6804C500 37.0693 491.392 28.4619 480.781 28.4619C470.17 28.4619 461.563 37.0613 461.563 47.6804C461.563 58.2994 470.17 66.8988 480.781 66.8988Z" fill="#D02D2E"/>
<path d="M334.808 233.325C334.311 233.325 334.039 233.598 334.039 234.094V249.714C334.039 252.487 333.422 253.866 330.809 253.866H330.657C330.16 253.866 329.887 254.138 329.887 254.635V258.33C329.887 258.827 330.16 259.099 330.657 259.099C337.389 259.099 340.009 256.639 340.009 249.097V234.094C340.009 233.598 339.737 233.325 339.24 233.325H334.808Z" fill="black"/>
<path d="M362.009 253.633C360.238 253.633 358.891 254.98 358.891 256.631C358.891 258.282 360.238 259.708 362.009 259.708C363.78 259.708 365.046 258.362 365.046 256.631C365.046 254.9 363.7 253.633 362.009 253.633Z" fill="black"/>
<path d="M379.28 227.899C380.971 227.899 382.317 226.553 382.317 224.822C382.317 223.091 380.971 221.824 379.28 221.824C377.589 221.824 376.162 223.171 376.162 224.822C376.162 226.473 377.509 227.899 379.28 227.899Z" fill="black"/>
<path d="M379.28 231.786C375.513 231.786 372.203 233.517 370.16 236.29C369.887 236.715 369.927 237.14 370.312 237.444L372.54 239.448C372.925 239.753 373.309 239.753 373.654 239.408C375.497 237.525 376.924 236.827 378.695 236.827C381.276 236.827 382.694 238.751 382.694 242.133V245.323H368.461C365.728 245.323 364.574 244.633 364.574 242.63V234.086C364.574 233.589 364.301 233.317 363.804 233.317H359.38C358.883 233.317 358.611 233.589 358.611 234.086V241.508C358.611 244.697 357.265 245.314 354.419 245.314H354.075C351.807 245.314 350.573 244.313 350.573 241.812V226.08C350.573 225.583 350.3 225.311 349.803 225.311H345.379C344.882 225.311 344.61 225.583 344.61 226.08V242.854C344.61 248.568 347.631 250.508 353.898 250.548C353.898 250.548 353.914 250.548 353.922 250.548H357C359.805 250.548 361.889 249.698 363.155 247.935C364.005 249.554 365.736 250.548 368.044 250.548H387.895C388.392 250.548 388.665 250.275 388.665 249.779V241.315C388.665 236.234 385.932 231.77 379.28 231.77V231.786Z" fill="black"/>
<path d="M398.362 229.863H405.134C405.439 229.863 405.631 229.67 405.631 229.366V227.675C405.631 227.37 405.439 227.178 405.134 227.178H403.788C402.866 227.178 402.169 226.873 402.169 225.944C402.169 225.134 402.746 224.71 403.595 224.71H404.75C405.054 224.71 405.246 224.517 405.246 224.213V222.522C405.246 222.217 405.054 222.025 404.75 222.025H403.555C401.095 222.025 399.476 223.451 399.476 225.527C399.476 226.064 399.588 226.641 399.941 227.178H398.362C398.058 227.178 397.865 227.37 397.865 227.675V229.366C397.865 229.67 398.058 229.863 398.362 229.863Z" fill="black"/>
<path d="M429.522 225.319H425.098C424.601 225.319 424.329 225.591 424.329 226.088V245.323H419.408C416.675 245.323 415.521 244.633 415.521 242.63V226.088C415.521 225.591 415.248 225.319 414.751 225.319H410.327C409.831 225.319 409.558 225.591 409.558 226.088V241.596C409.558 244.561 408.484 245.331 406.016 245.331H404.902V232.556C404.902 232.059 404.629 231.786 404.132 231.786H399.708C399.211 231.786 398.939 232.059 398.939 232.556V245.331H392.896C392.399 245.331 392.127 245.603 392.127 246.1V249.795C392.127 250.291 392.399 250.564 392.896 250.564H407.13C410.632 250.564 412.788 249.522 414.054 247.871C414.864 249.522 416.635 250.564 418.975 250.564H429.514C430.011 250.564 430.283 250.291 430.283 249.795V226.096C430.283 225.599 430.011 225.327 429.514 225.327L429.522 225.319Z" fill="black"/>
<path d="M221.613 41.6215H174.825L164.823 72.7092H212.164L221.613 41.6215Z" fill="black"/>
<path d="M244.454 135.053L195.102 111.707C198.091 106.81 226.927 94.364 247.371 98.9883C267.816 103.621 262.807 116.075 262.807 116.075L263.576 116.844C263.576 116.844 291.771 94.8689 284.109 77.7102C276.223 60.0545 236.167 74.2159 222.35 81.3247C206.746 89.347 179.169 110.425 168.013 133.899L218.784 158.767C221.733 160.21 220.707 164.65 217.422 164.65H146.591V72.6611H153.932L146.166 49.5798L115.495 66.8026V194.584L115.126 195.73H185.18C197.081 195.73 208.117 190.921 216.147 182.907L216.163 182.891C217.349 181.705 218.471 180.446 219.521 179.124L247.636 147.587C251.05 143.396 249.447 137.089 244.438 135.037" fill="black"/>
<path d="M77.3626 88.8982L53.2314 114.111L84.9042 155.914C84.9042 155.914 93.9604 166.718 9.91377 164.658L0 195.738H47.99C47.99 195.738 71.8888 196.892 94.1287 172.937C116.369 148.974 110.975 142.322 104.507 130.701L77.3546 88.8902L77.3626 88.8982Z" fill="black"/>
<path d="M433.064 179.308C431.317 177.216 430.363 174.58 430.363 171.863V72.6691H437.504L429.738 49.5877L399.067 66.8106V179.38C399.059 183.724 400.646 187.924 403.515 191.177L407.57 195.778L438.858 186.265L433.056 179.308H433.064Z" fill="black"/>
<path d="M296.043 150.449L327.114 141H327.122V88.6658H334.351L326.593 65.5844L295.922 82.8073L296.043 150.449Z" fill="black"/>
<path d="M380.658 49.5878L349.987 66.8107V72.6692H349.995V125.933H349.979V156.812C349.979 161.14 346.469 164.65 342.141 164.65H259.417L249.415 195.738H307.086C307.086 195.738 330.985 196.892 353.225 172.929C375.473 148.966 381.059 141.376 381.059 125.332V72.6611H388.408L380.642 49.5798L380.658 49.5878Z" fill="black"/>
<path d="M365.158 7.34406C366.849 7.34406 368.196 5.99764 368.196 4.26654C368.196 2.53544 366.849 1.26917 365.158 1.26917C363.467 1.26917 362.041 2.61558 362.041 4.26654C362.041 5.9175 363.387 7.34406 365.158 7.34406Z" fill="black"/>
<path d="M381.892 9.7243L388.584 4.25851C388.969 3.91389 388.969 3.56927 388.664 3.18458L386.052 0.299411C385.747 -0.0852787 385.363 -0.0852787 384.978 0.219267L374.976 9.37167C374.744 9.56401 374.631 9.8365 374.631 10.141V14.0681C374.631 14.565 374.904 14.8375 375.401 14.8375H379.248C383.712 14.8375 385.323 16.7609 385.323 20.1109V23.2285H372.011C369.278 23.2285 368.124 22.5393 368.124 20.5357V11.9924C368.124 11.4955 367.851 11.223 367.354 11.223H362.93C362.433 11.223 362.161 11.4955 362.161 11.9924V27.6124C362.161 30.3853 361.544 31.7638 358.931 31.7638H358.779C358.282 31.7638 358.01 32.0363 358.01 32.5332V36.2278C358.01 36.7247 358.282 36.9972 358.779 36.9972C365.359 36.9972 368.011 34.649 368.132 27.4521C369.013 28.1092 370.207 28.4539 371.594 28.4539H390.524C391.021 28.4539 391.293 28.1814 391.293 27.6845V19.1812C391.293 14.4528 388.873 10.141 381.908 9.71629L381.892 9.7243Z" fill="black"/>
<path d="M421.211 9.69226C415.825 9.69226 411.321 13.3468 411.321 19.1572C411.321 20.8883 411.666 22.1225 412.355 23.2365H408.741C406.008 23.2365 404.854 22.5473 404.854 20.5437V12.0004C404.854 11.5035 404.581 11.231 404.084 11.231H399.66C399.163 11.231 398.891 11.5035 398.891 12.0004V27.6204C398.891 30.3934 398.274 31.7718 395.661 31.7718H395.509C395.012 31.7718 394.739 32.0443 394.739 32.5412V36.2358C394.739 36.7327 395.012 37.0052 395.509 37.0052C402.089 37.0052 404.741 34.657 404.862 27.4601C405.743 28.1173 406.937 28.4619 408.324 28.4619H420.786C426.941 28.4619 431.061 25.152 431.061 19.1893C431.061 13.2266 426.637 9.68425 421.211 9.68425V9.69226ZM421.211 23.2365C418.943 23.2365 417.324 21.9703 417.324 19.1572C417.324 16.3442 419.247 14.9657 421.211 14.9657C423.174 14.9657 425.058 16.3121 425.058 19.1572C425.058 22.0023 423.439 23.2365 421.211 23.2365Z" fill="black"/>
<path fill-rule="evenodd" clip-rule="evenodd" d="M0 218.939H311.895V261.567H0V218.939ZM196.448 238.831C197.626 239.071 198.596 239.392 199.357 239.809L199.349 239.817C200.11 240.234 200.671 240.754 201.032 241.388C201.393 242.021 201.577 242.774 201.577 243.672C201.577 244.754 201.304 245.699 200.759 246.493C200.214 247.286 199.429 247.903 198.411 248.336C197.385 248.769 196.167 248.985 194.741 248.985C193.402 248.985 192.24 248.785 191.238 248.392C190.245 247.999 189.459 247.43 188.882 246.693C188.305 245.956 187.985 245.066 187.912 244.024V243.84H191.254L191.278 243.968C191.359 244.401 191.551 244.786 191.872 245.098C192.192 245.411 192.609 245.659 193.114 245.836C193.619 246.012 194.18 246.1 194.837 246.1C195.494 246.1 196.063 246.012 196.536 245.836C197.009 245.659 197.377 245.411 197.634 245.082C197.89 244.754 198.019 244.377 198.019 243.936C198.019 243.359 197.802 242.91 197.345 242.59C196.889 242.269 196.143 241.997 195.093 241.788L193.306 241.428C191.639 241.099 190.381 240.53 189.531 239.729C188.682 238.927 188.257 237.893 188.257 236.603C188.265 235.569 188.538 234.672 189.099 233.902C189.66 233.133 190.421 232.54 191.391 232.107C192.36 231.674 193.418 231.458 194.725 231.458C196.031 231.458 197.161 231.666 198.115 232.075C199.068 232.484 199.814 233.061 200.343 233.798C200.872 234.543 201.168 235.409 201.232 236.403V236.611H197.89L197.866 236.467C197.81 236.018 197.642 235.641 197.369 235.329C197.097 235.016 196.728 234.768 196.287 234.599C195.847 234.431 195.342 234.343 194.741 234.343C194.14 234.343 193.611 234.431 193.178 234.599C192.745 234.768 192.408 235.016 192.176 235.321C191.944 235.633 191.831 235.986 191.831 236.395C191.831 236.94 192.056 237.372 192.513 237.693C192.969 238.014 193.683 238.278 194.653 238.47L196.448 238.831ZM13.4077 248.681L19.3143 231.738H23.4898L29.3964 248.681H25.6617L24.3874 244.569H18.4007L17.1264 248.681H13.4077ZM21.366 235.024L19.2261 241.917H23.5699L21.4381 235.024H21.366ZM31.1356 231.738H34.6859V245.755H42.0912V248.681H31.1356V231.738ZM44.1908 248.681H55.4109V245.755H47.7332V241.508H54.9781V238.727H47.7332V234.663H55.4109V231.738H44.1908V248.681ZM62.0229 234.663H57.1181V231.738H70.478V234.663H65.5732V248.681H62.0229V234.663ZM75.9758 231.738H72.4334V248.681H75.9758V231.738ZM82.3473 238.623H89.977V231.738H93.5194V248.681H89.977V241.556H82.3473V248.681H78.797V231.738H82.3473V238.623ZM101.165 231.738L95.2583 248.681H98.977L100.251 244.569H106.238L107.512 248.681H111.247L105.34 231.738H101.165ZM101.077 241.917L103.217 235.024H103.289L105.421 241.917H101.077ZM119.454 231.738C121.153 231.738 122.603 232.067 123.806 232.716H123.798C125 233.365 125.921 234.311 126.562 235.561C127.204 236.811 127.524 238.326 127.524 240.121V240.145C127.524 241.933 127.212 243.471 126.571 244.746C125.929 246.02 125.008 246.998 123.806 247.671C122.603 248.344 121.153 248.681 119.454 248.681H112.986V231.738H119.454ZM123.357 243.239C123.733 242.405 123.918 241.38 123.918 240.161H123.926V240.137C123.926 238.967 123.733 237.973 123.349 237.156C122.964 236.339 122.411 235.721 121.682 235.305C120.952 234.888 120.071 234.68 119.037 234.68H116.537V245.747H119.037C120.095 245.747 120.976 245.531 121.706 245.114C122.435 244.697 122.98 244.072 123.357 243.239ZM145.396 242.75H145.324L137.678 231.738H134.577V248.681H138.111V237.597H138.183L145.861 248.681H148.931V231.738H145.396V242.75ZM162.972 248.681H151.752V231.738H162.972V234.663H155.294V238.727H162.539V241.508H155.294V245.755H162.972V248.681ZM180.475 243.88H180.411L177.285 231.738H174.176L171.05 243.88H170.978L168.301 231.738H164.615L169.111 248.681H172.581L175.699 237.34H175.771L178.88 248.681H182.342L186.838 231.738H183.152L180.475 243.88ZM219.962 242.79C219.81 243.463 219.561 244.04 219.201 244.513C218.84 244.986 218.391 245.347 217.862 245.595C217.333 245.844 216.724 245.972 216.043 245.972C215.145 245.972 214.36 245.739 213.687 245.275C213.021 244.81 212.501 244.145 212.14 243.279C211.779 242.413 211.595 241.388 211.595 240.201C211.595 239.007 211.779 237.989 212.14 237.14C212.501 236.29 213.021 235.625 213.687 235.16C214.352 234.696 215.137 234.463 216.043 234.463C216.748 234.463 217.365 234.591 217.894 234.848C218.423 235.104 218.864 235.465 219.209 235.93C219.553 236.395 219.794 236.932 219.922 237.565L219.97 237.765H223.432V237.645C223.312 236.451 222.935 235.385 222.278 234.455C221.621 233.525 220.771 232.788 219.697 232.259C218.624 231.73 217.405 231.458 216.035 231.458C214.384 231.458 212.949 231.81 211.747 232.508C210.537 233.213 209.607 234.207 208.95 235.513C208.293 236.819 207.964 238.382 207.964 240.201C207.964 242.037 208.293 243.6 208.95 244.906C209.607 246.212 210.537 247.222 211.747 247.919C212.957 248.617 214.384 248.977 216.035 248.977C217.405 248.977 218.624 248.713 219.697 248.184C220.771 247.655 221.629 246.925 222.286 245.996C222.943 245.066 223.32 244 223.432 242.806V242.678H219.978L219.954 242.798L219.962 242.79ZM236.856 248.681H225.628V231.738H236.856V234.663H229.178V238.727H236.415V241.508H229.178V245.755H236.856V248.681ZM250.24 242.75H250.16L242.514 231.738H239.413V248.681H242.947V237.597H243.019L250.697 248.681H253.766V231.738H250.24V242.75ZM260.635 234.663H255.73V231.738H269.09V234.663H264.185V248.681H260.635V234.663ZM271.053 248.681H282.274V245.755H274.596V241.508H281.841V238.727H274.596V234.663H282.274V231.738H271.053V248.681ZM297.06 240.161C296.507 241.027 295.762 241.644 294.824 242.013V242.021L298.39 248.689H294.359L291.209 242.558H288.372V248.689H284.83V231.746H291.827C293.101 231.746 294.183 231.963 295.088 232.395C295.994 232.828 296.683 233.453 297.164 234.255C297.645 235.056 297.885 236.026 297.885 237.164V237.188C297.885 238.302 297.613 239.296 297.06 240.161ZM293.51 239.144C294.015 238.679 294.263 238.03 294.263 237.196V237.172C294.263 236.355 294.007 235.705 293.486 235.233C292.965 234.76 292.267 234.519 291.402 234.519H288.38V239.849H291.442C292.323 239.849 293.005 239.608 293.51 239.144Z" fill="black"/>
</g>
<defs>
<clipPath id="clip0_5053_18499">
<rect width="500" height="262" fill="white"/>
</clipPath>
</defs>
</svg>
