<svg width="244" height="75" viewBox="0 0 244 75" fill="none" xmlns="http://www.w3.org/2000/svg">
<path d="M191.74 53.2473L191.074 53.913L191.005 37.9986L191.109 38.3741L189.452 35.6054L188.784 34.4882C189.503 34.4882 191.014 34.4836 191.74 34.4836L190.996 35.2276L190.975 22.1534L191.74 22.9181H191.406H190.639C190.639 21.9968 190.643 20.3199 190.646 19.3985H191.406H191.74L190.98 20.1586L190.984 17.5742L191.74 18.3297C191.533 18.3297 190.98 18.3297 190.768 18.3297L190.685 17.6686C190.634 17.2817 190.798 16.92 191.01 16.6643C191.372 16.2244 191.823 15.994 192.224 15.667L191.957 16.2405L191.961 13.739C191.959 13.4672 192.003 13.1424 192.097 12.8821C192.378 12.0529 193.116 11.4148 193.945 11.1983L193.399 11.9147C193.399 11.5922 193.399 10.9311 193.402 10.6063C193.637 10.6063 194.263 10.6086 194.489 10.6063L193.749 11.3457V10.7031L194.268 11.4079C193.279 11.1269 192.855 9.82778 193.484 9.01697C193.676 8.75438 193.954 8.55399 194.268 8.45724L193.754 9.15748V8.83961L194.148 9.48918C193.247 9.04001 193.247 7.67869 194.155 7.23413L193.761 7.87909C193.763 7.42301 193.77 6.3381 193.772 5.88202L194.59 6.00871C194.86 6.05017 195.425 6.1377 195.696 6.17916C195.696 6.53619 195.687 7.50823 195.687 7.88139L195.302 7.25025C196.192 7.6879 196.192 9.02849 195.302 9.46384L195.68 8.84192V9.15979L195.19 8.4918C196.579 8.93405 196.577 10.9311 195.185 11.3642L195.666 10.7077L195.662 11.3503L194.978 10.6662C195.203 10.6662 195.784 10.6731 196.014 10.6731C196.014 10.9956 196.007 11.6221 196.007 11.94L195.531 11.2905C196.049 11.454 196.521 11.7765 196.858 12.2233C197.192 12.661 197.369 13.2253 197.351 13.7781L197.337 16.2359L197.107 15.7384C197.713 16.2405 198.747 16.6735 198.664 17.6525L198.593 18.2168C198.385 18.2145 197.924 18.2122 197.726 18.2076L198.358 17.5765L198.332 20.1609L197.726 19.5551C197.945 19.5551 198.45 19.562 198.671 19.5643L198.666 20.1609C198.662 20.5894 198.646 22.3492 198.641 22.7431L198.063 22.7385H197.726L198.307 22.1557C198.277 25.4104 198.203 31.9752 198.155 35.2299L197.726 34.8015C198.21 34.8015 199.673 34.8314 200.141 34.8337C199.881 35.2737 198.323 37.7038 198.03 38.1852L198.081 38.0009L197.975 44.2363L197.848 50.4716L197.726 50.3496L199.413 50.391L199.558 50.3956L199.482 50.5154L197.726 53.245L199.344 50.4325L199.413 50.5546L197.726 50.596H197.607L197.604 50.4739C197.535 47.3551 197.42 41.1175 197.372 38.0032V37.9088L197.424 37.819L199.07 35.0226L199.415 35.6376C199.086 35.6376 197.597 35.663 197.307 35.6653L197.3 35.2322C197.245 31.678 197.173 25.134 197.141 21.5821L197.729 21.5775H198.065L197.482 22.158L197.464 20.1655L198.067 20.769H197.731L197.13 20.7782L197.123 20.1655C197.118 19.7118 197.095 17.3577 197.093 16.9569L197.731 16.95H198.04L197.411 17.5051C197.401 17.5581 197.418 17.6064 197.42 17.6087C197.116 17.2655 196.65 17.0605 196.27 16.7357L196.042 16.5469V16.2382L196.026 13.7805C196.035 13.5133 195.961 13.253 195.793 13.0387C195.556 12.6863 195.049 12.5596 194.657 12.4491L194.655 11.9423V11.3549L195.335 12.0368C195.116 12.0368 194.531 12.0414 194.305 12.0437L194.3 11.3549C194.3 11.097 194.296 10.4843 194.293 10.224L194.779 10.0558C194.878 10.0305 194.883 9.85772 194.775 9.83469L194.289 9.70339V9.1667L194.284 8.84883L194.662 8.2269C194.547 8.28449 194.549 8.46185 194.662 8.51944L194.277 7.8883L194.27 6.80108L194.881 7.50823L194.39 7.43913L195.215 6.72737L195.222 7.8883L194.828 8.53326C194.961 8.47567 194.966 8.26376 194.835 8.19926L195.229 8.84883C195.229 9.02389 195.231 9.47766 195.233 9.65963L194.717 9.86694C194.673 9.88076 194.65 9.94295 194.683 9.98441C194.692 9.99823 194.706 10.0074 194.717 10.0097L195.233 10.1433C195.233 10.4428 195.233 11.0555 195.236 11.3573V12.0966H194.496H194.148L194.888 11.3573V11.9239V12.4905L194.339 12.6403C193.959 12.7439 193.637 13.0157 193.512 13.3797C193.468 13.5156 193.459 13.6008 193.459 13.7505L193.464 16.252V16.6021C193.137 16.897 192.74 17.1642 192.413 17.4129C192.305 17.4936 192.19 17.6156 192.171 17.641C192.18 17.6226 192.199 17.5581 192.187 17.4913L191.438 16.8302C191.632 16.8302 192.293 16.8279 192.498 16.8302C192.498 17.8091 192.505 19.9513 192.505 20.9303C192.284 20.9303 191.623 20.9303 191.408 20.9303L192.169 20.1701L192.173 22.1626L191.408 21.3979C191.62 21.3979 192.286 21.3979 192.51 21.3979C192.51 22.1902 192.487 35.1838 192.487 35.9854C191.996 35.99 190.6 35.9785 190.093 35.9808L190.731 34.8614L192.376 37.637L192.48 37.8143V38.0147L192.408 53.9291C192.408 53.9291 185.973 54.5326 182.759 54.4957" fill="#416D3F"/>
<path fill-rule="evenodd" clip-rule="evenodd" d="M196.299 6.03411C193.983 6.03411 192.108 4.15912 192.108 1.84419C192.108 1.22457 192.244 0.634889 192.485 0.105103C191.838 0.842197 191.446 1.80733 191.446 2.8646C191.446 5.17954 193.322 7.05453 195.637 7.05453C197.331 7.05453 198.79 6.05023 199.451 4.60368C198.684 5.47898 197.557 6.03411 196.299 6.03411Z" fill="#416D3F"/>
<path d="M197.692 54.2309C197.577 51.757 198.651 49.3315 200.238 47.4796C201.793 45.6622 203.849 44.3562 206.012 43.4164L205.86 43.5039C206.482 43.0386 207.086 42.5549 207.609 42.0366L207.805 43.2459C207.69 43.186 207.551 43.1146 207.383 42.9373C207.171 42.6908 207.074 42.3913 207.109 42.0689C207.236 41.2143 208.208 40.9863 208.885 40.8112L208.48 41.0577C209.45 39.9129 210.512 39.0353 210.54 37.5035L210.994 38.2314C210.185 37.9227 209.319 37.1234 209.404 36.1376C209.468 35.1333 210.402 34.4607 211.286 34.2672L210.733 34.8361C210.777 34.6357 210.779 34.3731 210.782 34.0645L211.238 34.7371C209.869 34.1612 210.035 32.641 211.3 32.0559L210.92 32.5557C210.964 32.353 210.968 32.0904 210.968 31.7818L211.042 31.4662C211.031 31.4916 211.026 31.5054 211.026 31.5192C211.026 31.5192 211.026 31.5169 211.026 31.4962L211.309 32.0605C210.63 31.6021 210.36 30.8005 210.982 30.1417C211.171 29.9483 211.415 29.8308 211.653 29.7847L211.095 30.4251L211.282 27.8015L211.657 27.2348C211.602 27.2625 211.572 27.297 211.574 27.2947C211.623 27.2348 211.62 27.2302 211.71 27.1335L212.19 28.2921C211.773 28.299 211.406 27.9604 211.351 27.5619C211.282 27.092 211.643 26.6544 212.134 26.6521L211.459 27.3293C211.464 27.4882 211.508 27.5803 211.565 27.6587C211.579 27.6748 211.567 27.6587 211.542 27.6356L211.302 27.4007C211.457 26.4816 211.457 25.5833 211.593 24.5629L212.484 18.1133C212.604 20.0366 212.943 25.2861 213.116 27.1174L212.929 27.6126C212.971 27.5757 213.008 27.4997 212.991 27.532C212.978 27.5619 212.904 27.6955 212.814 27.7807L212.362 26.6889C212.478 26.6912 212.62 26.7027 212.807 26.8087C213.388 27.1657 213.219 27.9443 212.641 28.1907C212.593 28.2115 212.503 28.246 212.365 28.2483L212.814 27.1657C212.908 27.2671 212.941 27.3224 213.005 27.4191C213.01 27.426 213.01 27.4237 212.984 27.3984L213.166 27.8015L213.312 30.4274L212.828 29.8722C213.049 29.9183 213.277 30.0312 213.45 30.2108C214.024 30.8097 213.749 31.6482 213.07 31.9983L213.358 31.4916C213.351 31.3695 213.344 31.3948 213.349 31.404C213.372 31.4777 213.383 31.5353 213.399 31.6182C213.408 31.6528 213.408 31.7127 213.411 31.7518C213.406 32.0766 213.459 32.3116 213.459 32.6893L213.139 32.1734C213.572 32.4221 213.927 32.6778 214.06 33.256C214.164 33.8871 213.706 34.387 213.201 34.5781L213.554 34.0576C213.551 34.3662 213.547 34.638 213.59 34.8638L213.166 34.433C215.325 34.9167 215.501 37.2248 213.418 38.0056L213.729 37.5081C213.761 38.2245 213.927 38.8763 214.335 39.4706C214.749 40.0856 215.305 40.6569 215.786 41.2488L215.549 41.1037C216.028 41.235 216.501 41.3387 216.904 41.6819C217.358 42.108 217.051 42.7276 216.547 42.928L216.655 42.2693C217.189 42.8175 217.795 43.315 218.418 43.801C219.837 44.4137 221.316 45.3121 222.597 46.4592L222.339 46.9821C221.911 46.6181 221.457 46.2841 220.989 45.9824C220.051 45.3674 219.047 44.8583 218.005 44.4322C217.189 43.854 216.383 43.1814 215.664 42.4581C215.747 42.4144 216.245 42.1702 216.302 42.1126C216.323 42.0896 216.291 42.1195 216.289 42.1495C216.284 42.1633 216.289 42.2048 216.295 42.2255C216.3 42.2531 216.321 42.29 216.325 42.2969C216.019 42.0942 215.584 42.0159 215.215 41.9307C213.809 40.3344 212.763 39.5236 212.692 37.2179C213.005 37.0843 213.441 36.9023 213.643 36.6627C214.169 36.1145 213.514 35.6009 212.938 35.5064L212.588 35.4327C212.475 34.9974 212.427 34.4445 212.438 34.0553L212.431 33.6821C212.519 33.6429 212.895 33.5163 212.938 33.4333C212.957 33.4103 212.938 33.408 212.943 33.4495C212.952 33.4817 212.931 33.4218 212.867 33.3665C212.807 33.3089 212.717 33.2491 212.623 33.2053L212.307 33.051C212.323 32.6502 212.249 32.224 212.238 31.7864V31.7749C212.238 31.7795 212.238 31.7864 212.238 31.791C212.238 31.8048 212.24 31.8071 212.233 31.7864C212.203 31.6689 212.194 31.7127 212.176 31.4892L212.16 31.1691L212.461 30.9825C212.531 30.941 212.584 30.895 212.595 30.8788C212.602 30.8719 212.595 30.8765 212.584 30.8996C212.574 30.918 212.565 30.971 212.567 30.9871C212.572 31.0539 212.609 31.0585 212.59 31.0562L212.143 30.994L212.107 30.5011L211.908 27.8775L212.09 28.2806C212.005 28.1861 211.984 28.1562 211.927 28.0733L211.899 28.0341C211.895 28.0295 211.895 28.0318 211.92 28.0571L212.369 26.9745C212.203 26.9815 212.164 27.0091 212.079 27.0552C212.031 27.0897 212.031 27.0897 211.996 27.1312C211.982 27.1588 211.957 27.1703 211.918 27.3085C211.828 27.6172 212.09 27.9696 212.369 27.9627L211.918 26.8709C211.876 26.9077 211.837 26.9815 211.855 26.9492C211.867 26.9193 211.941 26.7834 212.031 26.6981L211.844 27.1934C211.779 26.3826 211.667 25.5533 211.597 24.6872L212.908 24.7264C212.807 25.505 212.809 26.348 212.696 27.2394L212.505 26.6728C212.531 26.6981 212.567 26.7327 212.627 26.8041C212.731 26.9469 212.814 27.0805 212.819 27.3201L212.143 27.9973C212.835 27.9973 212.922 26.9561 212.201 26.9285L212.68 28.0871C212.71 28.0548 212.701 28.0641 212.687 28.0848C212.586 28.2184 212.478 28.3405 212.277 28.4464L212.653 27.8798L212.498 30.5057L211.941 31.146C211.955 31.146 212.035 31.1138 212.049 30.9963C212.056 30.9526 212.037 30.8443 212.014 30.8097C211.998 30.7752 211.996 30.7775 212.008 30.789C212.063 30.8604 212.36 31.0608 212.45 31.1299C212.45 31.4501 212.482 31.7956 212.323 32.0927L212.397 31.7772C212.413 32.2171 212.374 32.7147 212.268 33.1615C212.132 33.2422 211.844 33.3596 211.747 33.4702C211.696 33.514 211.699 33.5577 211.72 33.4771C211.731 33.4103 211.72 33.3734 211.699 33.3366C211.696 33.3366 211.733 33.3665 211.784 33.385L212.238 33.5439C212.233 33.8526 212.249 34.2349 212.238 34.5482C212.238 34.8361 212.148 35.2715 212.088 35.5709C211.699 35.6654 211.141 35.7598 210.922 36.1122C210.846 36.2596 210.879 36.3449 211.028 36.5153C211.222 36.7387 211.759 36.9322 212.061 37.0589C212.014 39.5167 211.137 40.2975 209.634 42.0205L209.475 42.2094L209.231 42.267C208.998 42.3153 208.602 42.4466 208.487 42.518C208.565 42.4489 208.627 42.2554 208.618 42.1564C208.623 42.0988 208.558 41.9629 208.514 41.9191C208.457 41.8616 208.459 41.8754 208.487 41.8869L209.48 42.3015C208.664 43.1423 207.703 44.0452 206.779 44.7109L206.71 44.7639L206.627 44.8007C205.503 45.2913 204.443 45.8856 203.459 46.5951C201.079 48.2996 199.162 50.9969 199.185 54.0121L199.187 54.0766L199.229 54.9012H198.443" fill="#416D3F"/>
<path fill-rule="evenodd" clip-rule="evenodd" d="M214.528 18.7052C212.213 18.7052 210.337 16.8302 210.337 14.5153C210.337 13.8956 210.473 13.306 210.715 12.7762C210.067 13.5133 209.676 14.4784 209.676 15.5357C209.676 17.8506 211.551 19.7256 213.867 19.7256C215.56 19.7256 217.019 18.7213 217.68 17.2748C216.913 18.1501 215.786 18.7052 214.528 18.7052Z" fill="#416D3F"/>
<path d="M183.829 59.9809C188.182 57.3366 191.912 55.0701 191.942 55.0539C192.456 54.6439 192.454 54.6439 192.468 54.5126C192.479 54.3975 192.447 54.121 191.894 54.0427C191.693 54.022 191.244 53.9713 190.629 53.9206C190.014 53.8746 189.235 53.817 188.382 53.7525C186.675 53.6143 184.643 53.4853 182.986 53.46C180.823 53.4784 179.005 53.817 177.542 54.4389C176.071 55.0862 174.984 55.9592 174.346 57.0671C177.749 54.455 182.915 55.1967 188.159 55.7749C186.403 56.9335 185.069 57.7466 184.044 58.3386C183.011 58.9444 182.281 59.3268 181.641 59.5755C180.998 59.8243 180.435 59.9556 179.724 59.9833C179.016 59.9902 178.145 59.9349 176.876 59.7759C177.889 60.0961 178.813 60.467 179.894 60.6282C180.984 60.7434 182.226 60.6881 183.829 59.9833V59.9809Z" fill="#C8AA50"/>
<path d="M190.462 73.2717C190.476 73.1404 190.474 73.1404 189.905 72.6129C189.9 72.6106 189.833 72.5599 189.707 72.4678C189.582 72.3757 189.4 72.2444 189.172 72.0647C188.72 71.7008 188.087 71.1756 187.359 70.5145C186.633 69.8442 185.819 69.015 184.999 68.0821C184.186 67.1169 183.359 66.0804 182.619 64.9034C181.412 63.542 180.398 62.7589 179.382 62.2844C178.384 61.7684 177.398 61.5219 176.389 61.1096C177.495 61.8076 178.271 62.2567 178.863 62.7128C179.462 63.1481 179.893 63.5466 180.347 64.1202C180.801 64.6937 181.278 65.4216 182.025 66.4513C182.771 67.497 183.78 68.8491 185.402 70.6412C182.138 69.8741 179.036 68.6349 176.704 67.0248C176.124 66.6194 175.587 66.1979 175.105 65.7648C174.631 65.3088 174.211 64.8412 173.854 64.3598C173.135 63.4107 172.686 62.365 172.545 61.2778C172.223 62.0356 172.195 63.3854 172.965 64.9632C173.354 65.7441 173.933 66.6125 174.778 67.4763C175.633 68.3101 176.727 69.2223 178.161 69.987C180.029 71.065 182.594 71.9726 184.836 72.5991C185.958 72.9031 186.997 73.1496 187.833 73.297C188.665 73.4583 189.283 73.5573 189.564 73.5757C190.34 73.6425 190.451 73.3822 190.465 73.2671L190.462 73.2717Z" fill="#C8AA50"/>
<path d="M196.224 61.6762C198.116 59.8242 199.809 58.2118 200.996 57.0117C201.593 56.4151 202.072 55.9545 202.399 55.609C202.726 55.2773 202.913 55.0907 202.92 55.0838C203.309 54.5724 203.304 54.5747 203.288 54.4434C203.272 54.3282 203.18 54.0657 202.643 54.1094C202.256 54.144 200.929 54.3697 199.279 54.6093C197.634 54.8696 195.659 55.1414 194.049 55.4823C193.003 55.7333 192.056 55.9913 191.206 56.3645C190.358 56.6962 189.602 57.12 188.952 57.5715C187.655 58.4629 186.756 59.6077 186.362 60.7986C189.157 57.5507 194.381 57.2052 199.503 56.6317C198.793 57.3987 198.152 58.0437 197.586 58.5942C197.019 59.1562 196.523 59.633 196.088 60.0246C195.215 60.8193 194.581 61.3744 194.007 61.743C192.853 62.5008 191.941 62.7058 189.395 62.9177C190.452 63.0421 191.431 63.1964 192.521 63.1342C193.609 63.0352 194.814 62.6943 196.224 61.6762Z" fill="#C8AA50"/>
<path d="M205.733 73.1495C205.717 73.0182 205.712 73.0205 205.021 72.6336C205.012 72.6289 204.703 72.4977 204.161 72.2673C203.627 72.0393 202.873 71.6592 202 71.1732C200.251 70.2104 198.042 68.6855 196.088 66.7414C194.613 65.6519 193.457 65.1244 192.364 64.8595C191.279 64.5555 190.263 64.537 189.192 64.3228C191.652 65.2327 192.572 65.5298 193.692 66.4581C194.256 66.9303 194.878 67.5154 195.834 68.3814C196.311 68.8214 196.876 69.3028 197.567 69.8602C198.258 70.4269 199.079 71.0557 200.088 71.7421C196.678 71.7076 193.351 71.1548 190.724 70.0583C189.408 69.5285 188.275 68.8237 187.374 68.0451C186.48 67.2297 185.821 66.3314 185.461 65.2972C185.298 66.1195 185.553 67.4094 186.629 68.8099C187.703 70.2057 189.625 71.6961 192.777 72.6612C194.846 73.3085 197.583 73.6862 199.959 73.783C202.332 73.9027 204.332 73.7438 204.903 73.6609C205.696 73.5503 205.747 73.2716 205.733 73.1564V73.1495Z" fill="#C8AA50"/>
<path d="M208.663 60.4623C210.009 58.2257 211.113 56.1641 211.866 54.7406C212.221 54.0219 212.514 53.4322 212.716 53.0199C212.905 52.6145 213.014 52.3819 213.016 52.375C213.198 51.7784 213.193 51.7807 213.138 51.6609C213.09 51.5573 212.924 51.3338 212.472 51.525C212.145 51.6655 211.034 52.2068 209.634 52.8794C208.221 53.5336 206.486 54.2684 205.078 55.0009C201.431 56.8551 199.214 59.3682 198.968 61.9204C199.954 60.0016 201.705 58.7232 203.742 57.6337C205.781 56.5511 208.134 55.7011 210.394 54.7613C209.954 55.6735 209.53 56.4474 209.154 57.1477C208.767 57.818 208.422 58.3961 208.113 58.8983C207.491 59.8979 207.014 60.5498 206.562 61.0773C205.636 62.0839 204.806 62.5054 202.387 63.307C202.915 63.2402 203.422 63.178 203.933 63.1135C204.445 63.0513 204.952 62.95 205.468 62.7726C206.5 62.4386 207.581 61.7891 208.666 60.4577L208.663 60.4623Z" fill="#C8AA50"/>
<path d="M221.156 68.743C221.101 68.6232 221.096 68.6255 220.292 68.4873C220.288 68.4873 220.198 68.4827 220.032 68.4735C219.866 68.4597 219.631 68.4551 219.327 68.4159C218.721 68.3445 217.861 68.2248 216.859 68.0336C214.836 67.589 212.246 66.8058 209.831 65.3938C208.11 64.7166 206.861 64.5093 205.728 64.4909C205.166 64.4909 204.636 64.5393 204.108 64.5807C203.58 64.6245 203.06 64.7097 202.511 64.7259C205.122 65.0322 206.092 65.0967 207.417 65.7278C208.083 66.0158 208.843 66.4672 210.002 67.0454C210.583 67.3287 211.265 67.6558 212.099 68.0221C212.928 68.3561 213.914 68.7476 215.108 69.1277C211.693 70.0859 208.223 70.3715 205.359 69.9408C202.488 69.5147 200.239 68.3376 199.078 66.4995C199.101 67.331 199.636 68.5334 201.016 69.6736C202.394 70.7585 204.645 71.8227 208.037 71.9632C210.265 72.0553 213.115 71.7075 215.536 71.1271C217.956 70.5328 219.928 69.768 220.476 69.4985C221.239 69.1277 221.205 68.8421 221.156 68.7384V68.743Z" fill="#C8AA50"/>
<path d="M219.218 56.5418C219.492 55.3694 219.695 54.2223 219.886 53.2341C220.054 52.2183 220.188 51.3315 220.28 50.5898C220.358 49.8619 220.42 49.2653 220.466 48.8484C220.494 48.4361 220.51 48.2034 220.51 48.1965C220.473 47.6253 220.469 47.6299 220.383 47.5423C220.307 47.4663 220.093 47.3212 219.768 47.6184C219.658 47.7335 219.404 47.9823 219.056 48.3209C218.881 48.4914 218.704 48.701 218.485 48.9106C218.264 49.1156 218.031 49.3436 217.789 49.5878C216.798 50.5368 215.566 51.6563 214.556 52.649C214.238 52.9853 213.918 53.2871 213.642 53.6234C213.365 53.962 213.098 54.2822 212.851 54.6046C212.607 54.9317 212.388 55.2634 212.192 55.5997C211.99 55.9222 211.81 56.247 211.656 56.5764C211.047 57.9031 210.791 59.1838 210.994 60.3563C211.098 59.868 211.255 59.405 211.455 58.9627C211.651 58.5135 211.886 58.0736 212.16 57.6636C212.713 56.8528 213.372 56.0581 214.123 55.3325C215.616 53.8606 217.372 52.474 219.019 51.0251C218.826 52.8725 218.538 54.2637 218.282 55.3072C218.036 56.3783 217.787 57.0808 217.531 57.6659C217.273 58.2579 216.971 58.684 216.499 59.1401C216.264 59.3681 215.992 59.6192 215.649 59.8818C215.303 60.1375 214.895 60.4231 214.404 60.7617C214.856 60.5567 215.301 60.3839 215.743 60.195C216.181 60.0016 216.602 59.762 217.022 59.4787C217.443 59.2023 217.837 58.8245 218.211 58.3477C218.397 58.1104 218.579 57.8479 218.752 57.553C218.918 57.2467 219.072 56.9081 219.215 56.5372L219.218 56.5418Z" fill="#C8AA50"/>
<path d="M232.684 59.845C232.598 59.7575 232.594 59.7621 231.833 59.9026C231.824 59.9049 231.509 59.997 230.956 60.1583C230.389 60.2919 229.582 60.46 228.626 60.6097C227.661 60.7433 226.525 60.8286 225.324 60.824C224.105 60.7894 222.838 60.695 221.552 60.4116C221.119 60.3863 220.723 60.3817 220.357 60.3909C219.983 60.3863 219.642 60.4001 219.322 60.4324C218.686 60.4946 218.145 60.6236 217.631 60.7549C217.122 60.8931 216.665 61.0889 216.207 61.2708C215.744 61.4459 215.29 61.6371 214.811 61.8075C215.419 61.7108 215.928 61.6279 216.373 61.5564C216.82 61.485 217.193 61.4113 217.543 61.3768C218.241 61.3031 218.804 61.3169 219.479 61.3929C220.158 61.4712 220.972 61.6716 222.172 61.8329C223.387 62.0148 225.002 62.2106 227.38 62.1392C224.578 64.058 221.479 65.3525 218.744 65.7326C217.373 65.9122 216.103 65.9214 214.983 65.6588C214.424 65.5345 213.907 65.3663 213.435 65.136C212.96 64.8941 212.532 64.6039 212.156 64.2584C212.375 64.9839 213.156 65.9836 214.691 66.6263C215.458 66.9419 216.428 67.216 217.596 67.262C218.771 67.3403 220.149 67.2067 221.732 66.7967C223.813 66.26 226.324 65.0623 228.352 63.7816C228.854 63.4545 229.331 63.132 229.774 62.8279C230.211 62.5216 230.594 62.2014 230.939 61.9319C231.631 61.3906 232.117 60.9576 232.315 60.741C232.882 60.1629 232.762 59.921 232.686 59.845H232.684Z" fill="#C8AA50"/>
<path d="M227.659 48.9567C227.203 46.545 226.747 44.5273 226.312 43.0692C226.111 42.3482 225.95 41.7862 225.812 41.3785C225.687 40.9846 225.618 40.7589 225.616 40.7519C225.374 40.2337 225.371 40.2383 225.259 40.1899C225.16 40.1484 224.904 40.0978 224.706 40.5055C224.57 40.8072 224.173 41.8622 223.636 43.106C223.13 44.3729 222.42 45.7964 221.906 47.0426C221.588 47.8649 221.3 48.6273 221.125 49.4059C220.92 50.1568 220.8 50.8985 220.759 51.6149C220.639 53.0038 220.878 54.3444 221.441 55.3648C221.314 54.379 221.378 53.3954 221.604 52.4694C221.793 51.4997 222.15 50.5945 222.537 49.6501C223.337 47.7912 224.383 45.9185 225.337 43.9606C225.607 44.8405 225.83 45.6444 225.971 46.3285C226.118 47.0172 226.261 47.6484 226.332 48.1667C226.477 49.2124 226.574 49.9956 226.537 50.6152C226.503 51.2394 226.39 51.7531 226.136 52.3612C225.998 52.6537 225.823 52.9693 225.602 53.3401C225.385 53.7133 225.116 54.1302 224.756 54.6001C224.938 54.4343 225.118 54.2707 225.295 54.1095L225.802 53.6004C226.13 53.2526 226.473 52.914 226.74 52.4833C227.01 52.0548 227.249 51.5711 227.429 51.0045C227.583 50.4171 227.673 49.7376 227.666 48.9567H227.659Z" fill="#C8AA50"/>
<path d="M241.335 46.8376C241.222 46.7892 241.22 46.7938 240.57 47.2061C240.563 47.213 240.305 47.4134 239.853 47.7659C239.413 48.1137 238.729 48.5744 237.89 49.0719C236.25 50.0877 233.833 51.1473 231.289 51.6494C230.448 51.9258 229.782 52.2115 229.225 52.5201C228.642 52.8057 228.172 53.1144 227.761 53.4438C227.354 53.7778 226.962 54.0887 226.607 54.4366L226.07 54.9525C225.879 55.1115 225.685 55.2727 225.49 55.4362C226.036 55.1483 226.48 54.8788 226.865 54.6416C227.255 54.4089 227.593 54.22 227.911 54.0611C228.522 53.7225 229.043 53.5152 229.72 53.3493C230.402 53.1904 231.211 53.0015 232.397 52.7274C233.01 52.5869 233.672 52.3727 234.499 52.1055C235.335 51.8406 236.25 51.4698 237.337 50.9722C235.489 53.84 233.054 56.2908 230.584 57.6867C229.363 58.4054 228.112 58.8269 226.978 59.0181C225.81 59.1632 224.752 59.0757 223.808 58.6703C224.264 59.3037 225.305 59.944 227.015 60.027C228.704 60.1007 231.1 59.5663 233.805 57.5324C234.254 57.2053 234.713 56.8298 235.153 56.406C235.598 55.9868 236.066 55.5491 236.499 55.0769C236.925 54.5978 237.347 54.1049 237.754 53.6119C238.167 53.119 238.512 52.5984 238.867 52.1078C240.257 50.1269 241.125 48.321 241.335 47.7912C241.639 47.0541 241.436 46.879 241.337 46.8399L241.335 46.8376Z" fill="#C8AA50"/>
<path d="M229.069 30.8933C228.735 30.352 228.735 30.3566 228.615 30.322C228.511 30.2944 228.253 30.2852 228.134 30.7873C228.085 30.967 228.032 31.3862 227.933 31.9367C227.816 32.4826 227.728 33.1898 227.585 33.9384C227.327 35.4517 226.954 37.1609 226.772 38.5844C226.617 39.4896 226.606 40.3741 226.59 41.1688C226.59 41.5696 226.622 41.9704 226.661 42.3528C226.687 42.7282 226.735 43.0945 226.804 43.4538C226.954 44.1794 227.134 44.8382 227.385 45.4486C227.638 46.059 227.961 46.6164 228.343 47.0909C227.645 45.11 227.707 43.1613 228.007 41.0905C228.302 39.0174 228.88 36.8085 229.408 34.4843C229.627 34.9404 229.832 35.3665 230.023 35.7627C230.212 36.1658 230.357 36.5343 230.511 36.8891C230.809 37.5962 231.071 38.2181 231.249 38.7502C231.631 39.8282 231.885 40.6114 231.981 41.2633C232.081 41.9174 232.131 42.4887 231.988 43.1406C231.857 43.7993 231.657 44.5963 231.207 45.702C231.73 44.8819 232.228 44.1333 232.581 43.1705C232.894 42.1985 233.069 41.0007 232.675 39.3399C232.564 39.0405 232.454 38.7433 232.346 38.4508C232.228 38.1583 232.111 37.8703 231.995 37.587C231.763 37.0227 231.569 36.4952 231.348 35.9861C230.894 34.9634 230.551 34.0835 230.184 33.3257C229.832 32.5725 229.597 31.9828 229.382 31.5567C229.187 31.1374 229.076 30.9002 229.071 30.8933H229.069Z" fill="#C8AA50"/>
<path d="M243.582 31.2596C243.458 31.2849 243.458 31.2895 243.036 31.9529C243.031 31.9621 242.882 32.2547 242.617 32.7683C242.363 33.2751 241.907 34.0007 241.37 34.8368C240.849 35.6752 240.105 36.6289 239.313 37.5986C238.909 38.0846 238.437 38.5683 237.969 39.0475C237.732 39.2801 237.49 39.5173 237.244 39.7569C236.983 39.9872 236.716 40.2153 236.446 40.4387C235.209 41.7885 234.497 42.7997 234.05 43.7787C233.568 44.7392 233.352 45.6583 232.914 46.5981C233.635 45.5477 234.045 44.7807 234.476 44.1864C234.919 43.5967 235.257 43.1314 235.808 42.6339C236.363 42.1317 237.013 41.5651 237.979 40.6714C238.476 40.2268 238.999 39.6901 239.621 39.0244C239.928 38.6927 240.278 38.3265 240.617 37.9211C240.953 37.5157 241.315 37.0711 241.702 36.5805C241.313 39.7615 240.338 42.9702 238.796 45.4602C237.257 47.9571 235.154 49.657 232.985 50.0785C233.587 50.1891 234.255 50.1684 234.981 49.991C235.709 49.8136 236.497 49.482 237.264 48.9476C237.654 48.6827 238.052 48.374 238.455 48.017C238.845 47.6576 239.216 47.243 239.598 46.7869C240.382 45.8771 241.038 44.7484 241.672 43.4447C242.589 41.4292 243.301 38.7895 243.626 36.5552C243.808 35.4357 243.87 34.4222 243.944 33.6183C243.997 32.8167 243.981 32.2362 243.976 31.9736C243.946 31.255 243.69 31.2342 243.582 31.255V31.2596Z" fill="#C8AA50"/>
<path d="M236.147 19.9819C235.946 19.6548 235.781 19.6364 235.67 19.6894C235.552 19.6663 235.396 19.7285 235.269 20.0925C235.202 20.2859 235.078 20.7743 234.923 21.4469C234.85 21.7832 234.767 22.1655 234.675 22.5802C234.575 22.9948 234.467 23.4416 234.352 23.9092C234.246 24.3722 234.135 24.8582 234.025 25.3512C233.898 25.8418 233.776 26.337 233.665 26.8254C233.463 27.8066 233.191 28.7533 233.055 29.5987C232.617 31.78 232.575 33.5905 232.755 35.2006C232.854 36.0068 233.034 36.7669 233.23 37.4764C233.44 38.1904 233.734 38.8769 234.013 39.5103C233.555 37.0549 233.642 34.7745 234.08 32.3881C234.488 30.0041 235.241 27.521 236.122 24.8813L236.14 24.9435L236.149 24.879C237.248 27.415 237.916 30.1308 237.85 32.7636C237.762 35.3872 236.923 37.9209 235.23 39.8535C235.85 39.455 236.398 38.946 236.926 38.3356C237.467 37.7251 237.921 37.0019 238.301 36.1634C239.085 34.4934 239.472 32.3559 239.257 29.8498C239.068 27.9195 238.488 25.5677 237.771 23.6812C237.596 23.2113 237.428 22.7644 237.271 22.3498C237.092 21.9467 236.926 21.5759 236.781 21.2488C236.483 20.6038 236.253 20.1523 236.147 19.9796V19.9819Z" fill="#C8AA50"/>
<path d="M8.16234 46.614L7.19338 50.2482C6.17974 50.9318 5.14892 51.2753 4.11123 51.2753C2.67839 51.2753 1.69568 50.475 1.16309 48.8777C0.871023 47.9777 0.69922 46.5831 0.651115 44.6938L0.499928 38.947C0.386538 34.6361 0.328125 32.4411 0.328125 32.3655C0.328125 32.2006 0.482748 31.6613 0.795429 30.7476C1.10467 29.8339 1.31771 29.3015 1.43454 29.1503H1.54793C1.58572 31.3453 1.66132 34.6223 1.77471 38.9848C1.78845 40.2008 1.91902 42.0042 2.17329 44.3881C2.68183 46.8373 3.6508 48.0601 5.08363 48.0601C6.14881 48.0601 7.1762 47.5792 8.16578 46.614H8.16234Z" fill="#416D3F"/>
<path d="M12.633 28.5251C12.6467 29.6278 12.4096 30.6892 11.9286 31.7025C11.3307 32.9323 10.5473 33.5472 9.56801 33.5472C9.13506 33.5472 8.76741 33.4132 8.46503 33.1487C8.28636 33.554 7.94619 33.9284 7.44796 34.2719C6.94629 34.6154 6.47555 34.7872 6.02887 34.7872C5.699 34.7872 5.42755 34.6292 5.21108 34.3132C5.00836 34.0349 4.90527 33.7189 4.90527 33.3617C4.90527 32.8292 5.25919 31.9808 5.97045 30.8129L6.42745 30.7373C6.24877 31.3213 6.15944 31.8606 6.15944 32.3552C6.15944 32.685 6.30375 32.8498 6.59582 32.8498C7.33113 32.8498 8.17984 31.8228 9.14537 29.7686L9.50616 29.6553C9.50616 30.8988 9.70889 31.5205 10.1143 31.5205C10.8497 31.5205 11.5231 30.5896 12.1313 28.7244L12.6261 28.5355L12.633 28.5251Z" fill="#416D3F"/>
<path d="M10.8839 53.0442C10.554 54.4766 10.1554 55.4281 9.6847 55.8987C9.48197 56.1014 8.59891 56.6476 7.03893 57.5338C6.67128 57.7502 6.1112 58.0525 5.36557 58.4475C5.35183 58.0559 5.75728 57.022 6.58194 55.3457C6.80872 55.2049 7.2932 54.9781 8.02852 54.6621C8.42023 54.4972 9.37202 53.9579 10.8839 53.0442ZM14.0794 46.5761L13.1105 50.1897C12.0453 50.9626 10.9973 51.3508 9.96989 51.3508C8.87723 51.3508 8.08006 50.887 7.57152 49.963L7.05611 50.3615L8.0079 46.8406C8.69168 46.054 9.3892 45.257 10.1005 44.4429C10.1383 44.6319 10.1589 44.8483 10.1589 45.0887C10.1589 46.0162 9.66408 47.1566 8.6745 48.5134C8.89097 48.6543 9.25863 48.723 9.77748 48.723C10.3857 48.723 11.1553 48.4825 12.0796 48.0016C12.9043 47.5585 13.5709 47.081 14.0794 46.5761Z" fill="#416D3F"/>
<path d="M24.4529 35.9414C24.4529 37.4493 24.1815 38.9676 23.6351 40.4893C22.9994 42.2137 22.1645 43.4778 21.1234 44.2747C20.577 44.6938 20.12 44.8827 19.7524 44.845C18.4467 46.6071 17.1581 47.4899 15.8902 47.4899C15.636 48.2765 14.6395 49.2349 12.9043 50.3616L13.8561 46.8407C15.5054 45.3327 16.4812 44.2163 16.787 43.4916C16.9004 43.1755 17.086 42.7049 17.3403 42.0832L17.5876 42.3099L17.6461 42.4817L17.4365 43.6049C17.4365 43.7183 17.488 43.8007 17.5876 43.8522C18.0446 43.8522 18.5635 43.5019 19.1476 42.8045C19.6562 42.1828 19.9791 41.6126 20.1166 41.0939C20.2059 40.6748 20.3434 40.0531 20.5358 39.2287L20.8038 39.0398L20.8794 39.1737C20.955 39.452 20.9928 40.139 20.9928 41.2279L21.1062 41.2657C21.9308 40.8741 22.5699 40.2008 23.0269 39.2493C23.3053 38.6791 23.5527 37.8719 23.7691 36.8345C23.9478 35.9963 24.099 35.5395 24.2261 35.4639C24.3773 35.5257 24.4529 35.6872 24.4529 35.9379V35.9414ZM24.3739 28.9786C24.3739 29.2946 24.123 29.7961 23.6214 30.4831C23.1197 31.1667 22.7314 31.5102 22.4497 31.5102L22.2401 31.2629L22.1645 30.9571C21.9618 30.7923 21.7384 30.7098 21.4979 30.7098C20.1647 30.7098 18.5738 32.3724 16.7218 35.694C16.7733 34.399 17.5533 32.7846 19.0617 30.8438C20.6354 28.8137 22.0167 27.8004 23.209 27.8004C23.9822 27.8004 24.3704 28.192 24.3704 28.9786H24.3739Z" fill="#416D3F"/>
<path d="M32.6337 38.284C32.6337 41.6572 32.2214 44.0858 31.3967 45.5697C30.4209 47.3456 28.4486 48.7711 25.4798 49.8497C25.0606 50.0009 24.796 50.0765 24.6792 50.0765C24.5624 50.0765 24.5005 50.0249 24.4902 49.9253C24.7686 49.3551 25.2324 48.7196 25.8784 48.0223C26.435 47.4384 26.9883 46.8613 27.5346 46.2911C28.8025 44.8724 29.6718 43.7732 30.1426 43.0003C30.9432 41.695 31.3417 40.3759 31.3417 39.0432C31.3417 38.0917 30.9225 36.4566 30.0841 34.1345C29.3488 32.1044 28.6616 30.4899 28.0294 29.2843C27.6995 31.7197 27.5346 33.2929 27.5346 34.0005C27.5346 35.3196 27.3903 36.0478 27.0982 36.1887C26.679 36.1131 26.4694 34.8078 26.4694 32.2693C26.4694 27.5633 26.8611 24.0321 27.648 21.6722C29.0671 24.1455 30.2353 26.8213 31.1493 29.6999C32.1389 32.8567 32.6337 35.7181 32.6337 38.2806V38.284Z" fill="#416D3F"/>
<path d="M41.7611 37.36C41.7611 38.7305 41.5515 39.4519 41.1323 39.5275L40.6203 38.8989C40.2664 38.9126 39.9743 39.1221 39.7441 39.5275C39.1222 40.6061 38.4625 42.0144 37.7649 43.7491C37.1946 45.209 36.6242 46.6586 36.0538 48.1047C35.5727 49.2452 34.8305 50.3753 33.8272 51.4917C32.762 52.6836 31.7037 53.5149 30.6489 53.9855C29.4565 54.5317 27.8141 54.803 25.7215 54.803C22.5638 54.803 20.9317 54.645 20.832 54.329L21.021 54.195C23.684 54.195 26.1579 53.6248 28.4429 52.4844C30.8138 51.2924 32.7174 49.6127 34.1502 47.4418C34.9233 46.2636 35.7548 44.6972 36.6448 42.7426L38.3972 38.8233C39.3868 36.8585 40.153 35.876 40.6993 35.876C41.0051 35.876 41.2629 36.0547 41.4793 36.4085C41.6683 36.7142 41.7645 37.0302 41.7645 37.36H41.7611Z" fill="#416D3F"/>
<path d="M76.411 41.2999C76.411 41.8324 76.0193 42.9625 75.2325 44.6869C74.7514 45.7517 74.3253 46.5315 73.9577 47.0261C71.951 49.7398 68.5012 52.1374 63.6048 54.2156C58.9868 56.1702 54.8497 57.1457 51.1972 57.1457C45.1463 57.1457 42.1191 54.7859 42.1191 50.0696C42.1191 47.9398 42.8613 45.9991 44.3457 44.2472C45.5518 42.8285 47.098 41.6744 48.9878 40.7847C50.3073 40.163 52.3174 39.5343 55.0216 38.9023C58.4611 38.1019 60.5261 37.5901 61.2271 37.36C64.4742 36.3329 67.2917 34.7871 69.6764 32.7193C69.2949 32.4788 68.783 32.1044 68.1336 31.596C68.5631 30.9983 69.2434 30.1705 70.1711 29.1022C70.6522 29.3564 71.0336 29.5762 71.3119 29.7686C71.8308 30.1224 72.0988 30.4418 72.1091 30.7201L71.3119 32.0906C70.9168 32.6883 70.5766 33.0559 70.2845 33.1933L69.9615 32.9082C67.1715 35.6493 64.3298 37.4424 61.4367 38.2909L55.805 39.8881C53.307 40.6232 51.2556 41.3412 49.6579 42.0385C45.7511 43.7491 43.7959 45.9201 43.7959 48.5444C43.7959 50.6501 44.9573 52.1718 47.2767 53.1096C48.926 53.7931 50.9876 54.1366 53.4616 54.1366C56.5678 54.1366 60.4127 53.1336 64.993 51.131C69.9031 48.9738 73.054 46.7032 74.4525 44.3193C74.5281 44.1922 74.5659 44.0583 74.5659 43.9209C74.5659 43.4125 74.37 43.0278 73.9749 42.7598C73.4423 43.5224 72.6863 43.9003 71.7105 43.9003C71.1161 43.9003 70.7518 43.7182 70.6247 43.3472C70.8274 42.4713 71.2191 41.4889 71.8033 40.4C72.5283 39.0294 73.1811 38.3458 73.7618 38.3458C74.2326 38.3458 74.7892 38.6962 75.4352 39.3935C76.0812 40.0908 76.4042 40.7263 76.4042 41.2965L76.411 41.2999Z" fill="#416D3F"/>
<path d="M85.6882 43.354L84.7193 46.9883C83.7056 47.6719 82.6782 48.0154 81.6371 48.0154C80.2043 48.0154 79.2216 47.215 78.689 45.6177C78.3969 44.7178 78.2251 43.3231 78.1736 41.4339L78.0224 35.6871C77.909 31.3761 77.8506 29.1811 77.8506 29.1056C77.8506 28.9407 78.0052 28.4014 78.3179 27.4877C78.6271 26.574 78.8402 26.0415 78.957 25.8904H79.0704C79.1082 28.0854 79.1838 31.3624 79.2972 35.7249C79.3109 36.9409 79.4415 38.7442 79.6957 41.1282C80.2043 43.5773 81.1733 44.8002 82.6061 44.8002C83.6713 44.8002 84.6987 44.3193 85.6882 43.354Z" fill="#416D3F"/>
<path d="M90.2349 36.8069C90.2349 37.3256 89.9807 38.3939 89.4756 40.0015C88.51 43.0724 86.8745 45.4357 84.5654 47.0982L85.5344 43.5224C86.1701 43.117 86.8023 42.5331 87.438 41.7705C88.187 40.8843 88.5616 40.1354 88.5616 39.524C88.5616 39.1805 88.4413 38.9606 88.2008 38.8576C87.3521 39.5549 86.6546 39.9053 86.1082 39.9053C85.7165 39.9053 85.3798 39.7919 85.098 39.5618C84.7819 39.3076 84.6238 38.9916 84.6238 38.6103C84.6238 37.8992 84.9606 36.8722 85.634 35.5291C86.3556 34.0829 87.0153 33.3616 87.6132 33.3616C88.3107 33.3616 88.9327 33.7738 89.479 34.5982C89.9875 35.3333 90.2384 36.0684 90.2384 36.8035L90.2349 36.8069ZM90.6919 25.7186C90.3758 27.0514 90.0322 27.9308 89.6645 28.3636C89.4103 28.6693 88.6303 29.2086 87.3246 29.9815C86.5618 30.4246 85.8402 30.8128 85.1564 31.1425C85.1805 30.6616 85.5825 29.6277 86.3556 28.0407C87.5342 27.5461 88.9808 26.7732 90.6954 25.7186H90.6919Z" fill="#416D3F"/>
<path d="M98.1928 38.6928C98.1928 41.3069 97.1345 44.2369 95.0145 47.483C92.8463 50.7944 90.5923 52.8417 88.2592 53.6283C86.5721 54.1985 84.1359 54.4836 80.9507 54.4836C80.0264 54.4836 79.5625 54.3634 79.5625 54.1229C79.5625 54.0096 80.0642 53.8241 81.0641 53.5699C82.5484 53.2023 83.6583 52.8932 84.3936 52.639C86.6648 51.8524 88.8124 50.6501 90.8362 49.0322C92.8601 47.4143 94.4681 45.5938 95.6604 43.5637C96.4851 42.169 96.8974 41.0149 96.8974 40.1012C96.8974 39.847 96.8012 39.4485 96.6122 38.9023C95.901 39.689 95.0763 40.0805 94.1383 40.0805C93.7191 40.0805 93.3377 39.9535 92.9975 39.6993C92.6539 39.4451 92.4821 39.1153 92.4821 38.71C92.4821 37.8615 92.9838 36.5287 93.9871 34.715C94.2929 34.1586 94.7361 33.8769 95.3203 33.8769C97.2342 33.8769 98.1928 35.4811 98.1928 38.6894V38.6928Z" fill="#416D3F"/>
<path d="M99.6281 18.4879C99.5903 18.6768 99.4529 18.9997 99.2192 19.4497C98.9855 19.8997 98.8034 20.1711 98.6763 20.2569C98.5629 20.2054 98.4358 20.1814 98.2949 20.1814C97.9135 20.1814 97.7245 20.3394 97.7245 20.6554C97.7245 20.834 98.0406 20.9233 98.6763 20.9233C99.1333 20.9233 99.3601 21.1123 99.3601 21.4936C99.3601 22.4313 98.6179 23.2557 97.1335 23.9668C95.8656 24.5645 94.6973 24.8599 93.6322 24.8599C93.4672 24.8599 93.3848 24.7843 93.3848 24.6332L95.7075 23.8328C96.838 23.4137 97.5012 23.0668 97.7073 22.7851C97.6695 22.7096 97.4531 22.6786 97.0614 22.689C96.5666 22.7027 96.3192 22.4622 96.3192 21.9676C96.3192 21.4214 96.6662 20.6829 97.3672 19.752C98.0647 18.8211 98.6797 18.3539 99.2123 18.3539C99.3017 18.3539 99.4425 18.3986 99.6315 18.4879H99.6281ZM106.136 39.5103C106.136 42.8835 105.724 45.312 104.899 46.7959C103.923 48.5719 101.951 49.9974 98.9821 51.076C98.5629 51.2271 98.2983 51.3027 98.1815 51.3027C98.0647 51.3027 98.0028 51.2512 97.9925 51.1516C98.2708 50.5813 98.7347 49.9459 99.3807 49.2485C99.9373 48.6646 100.491 48.0875 101.037 47.5173C102.305 46.0986 103.174 44.9994 103.645 44.2265C104.445 42.9212 104.844 41.6022 104.844 40.2694C104.844 39.3179 104.425 37.6828 103.586 35.3607C102.851 33.3306 102.164 31.7162 101.532 30.5105C101.202 32.9459 101.037 34.5192 101.037 35.2268C101.037 36.5458 100.889 37.2741 100.6 37.4149C100.181 37.3393 99.9717 36.034 99.9717 33.4955C99.9717 28.7896 100.363 25.2583 101.15 22.8985C102.569 25.3717 103.738 28.0476 104.652 30.9261C105.641 34.0829 106.136 36.9443 106.136 39.5068V39.5103Z" fill="#416D3F"/>
<path d="M118.061 36.1233C118.061 37.4939 117.522 39.0259 116.443 40.7263C115.264 42.5777 114.031 43.5052 112.752 43.5052C111.698 43.5052 111.172 43.1754 111.172 42.5159C111.172 41.2862 111.811 39.5927 113.093 37.4355C114.474 35.1272 115.718 33.973 116.821 33.973C117.645 33.973 118.058 34.6909 118.058 36.1233H118.061ZM116.367 38.4626C116.367 37.7275 116.044 37.3599 115.398 37.3599C114.306 37.3599 113.495 38.205 112.962 39.8916C113.203 40.0805 113.584 40.1767 114.103 40.1767C114.776 40.1767 115.505 39.7576 116.292 38.9195L116.367 38.4626ZM120.456 24.4236C120.113 25.7942 119.776 26.6736 119.446 27.0686C119.192 27.3606 118.405 27.8999 117.085 28.6865C116.539 29.0163 115.817 29.4044 114.917 29.8476C114.955 29.3907 115.354 28.3568 116.116 26.7457C116.79 26.5293 118.236 25.7564 120.456 24.4236Z" fill="#416D3F"/>
<path d="M125.666 38.7477L124.676 42.4198C123.103 43.3335 122.007 43.9999 121.385 44.419C119.9 45.4082 118.993 46.2258 118.663 46.8716C117.65 49.0666 116.633 51.2547 115.619 53.4359C114.148 56.2251 112.612 57.8877 111.015 58.4201C109.798 58.8255 108.458 59.0281 106.998 59.0281C104.067 59.0281 102.184 58.7877 101.346 58.3068L101.287 58.2106L101.438 58.0388C102.201 58.19 103.029 58.269 103.933 58.269C106.266 58.269 108.475 57.5201 110.554 56.0225C112.392 54.6794 113.949 52.9035 115.217 50.6948C115.306 50.5299 115.908 49.3379 117.024 47.1189C117.749 45.6727 118.447 44.5426 119.127 43.7216C119.804 42.9041 120.88 42.0385 122.354 41.1248C123.989 40.1114 125.096 39.318 125.666 38.7477Z" fill="#416D3F"/>
<path d="M129.069 20.9028C129.032 21.0917 128.894 21.4146 128.661 21.8646C128.427 22.3146 128.245 22.5859 128.118 22.6718C128.004 22.6203 127.877 22.5962 127.736 22.5962C127.355 22.5962 127.166 22.7542 127.166 23.0703C127.166 23.2489 127.482 23.3382 128.118 23.3382C128.575 23.3382 128.801 23.5271 128.801 23.9084C128.801 24.8462 128.059 25.6706 126.575 26.3816C125.307 26.9793 124.139 27.2747 123.074 27.2747C122.909 27.2747 122.826 27.1992 122.826 27.048L125.149 26.2477C126.279 25.8286 126.943 25.4817 127.149 25.2C127.111 25.1244 126.894 25.0935 126.503 25.1038C126.008 25.1175 125.761 24.8771 125.761 24.3825C125.761 23.8363 126.108 23.0977 126.809 22.1669C127.506 21.236 128.121 20.7688 128.654 20.7688C128.743 20.7688 128.884 20.8135 129.073 20.9028H129.069ZM128.327 35.2852C128.327 36.4016 127.918 37.7103 127.101 39.2149C126.283 40.7194 125.403 41.8255 124.465 42.5331L125.434 38.9573C125.915 38.6034 126.372 37.9886 126.805 37.1126V36.6936C126.805 35.3745 126.52 34.3852 125.95 33.7257C125.657 33.9662 125.379 34.4608 125.111 35.2096C124.97 35.1581 124.902 34.9761 124.902 34.6566C124.902 34.1001 125.149 33.262 125.644 32.1456C126.152 30.9674 126.613 30.2563 127.032 30.0159C127.894 31.2319 128.327 32.9906 128.327 35.2852Z" fill="#416D3F"/>
<path d="M136.849 34.9452C136.849 38.3183 136.436 40.7469 135.612 42.2308C134.636 44.0067 132.663 45.4323 129.695 46.5109C129.275 46.662 129.011 46.7376 128.894 46.7376C128.777 46.7376 128.715 46.6861 128.705 46.5864C128.983 46.0162 129.447 45.3808 130.093 44.6834C130.65 44.0995 131.203 43.5224 131.749 42.9522C133.017 41.5335 133.887 40.4343 134.357 39.6614C135.158 38.3561 135.557 37.0371 135.557 35.7043C135.557 34.7528 135.137 33.1177 134.299 30.7956C133.564 28.7655 132.876 27.1511 132.244 25.9454C131.914 28.3808 131.749 29.9541 131.749 30.6617C131.749 31.9807 131.602 32.709 131.313 32.8498C130.894 32.7742 130.684 31.4689 130.684 28.9304C130.684 24.2244 131.076 20.6932 131.863 18.3334C133.282 20.8066 134.45 23.4825 135.364 26.361C136.354 29.5178 136.849 32.3792 136.849 34.9417V34.9452Z" fill="#416D3F"/>
<path d="M150.987 33.3067C150.987 35.8829 150.104 38.7924 148.341 42.0385C146.551 45.3499 144.287 47.7269 141.548 49.1731C140.813 49.5646 139.329 49.8978 137.095 50.1623C135.229 50.3925 133.645 50.5058 132.336 50.5058C131.615 50.5058 131.158 50.4749 130.965 50.4097L130.89 50.2757C131.168 50.2242 131.639 50.1692 132.298 50.104C134.051 49.9391 135.875 49.4135 137.779 48.5238C141.431 46.8132 144.555 44.1991 147.142 40.6851C148.754 38.5039 149.558 36.9616 149.558 36.0616C149.558 35.4398 149.286 34.8456 148.74 34.2719C148.194 33.7017 147.61 33.4166 146.988 33.4166C146.252 33.4166 145.039 33.7979 143.352 34.557C141.5 35.3952 140.572 36.1303 140.572 36.7623C140.572 36.8276 140.789 37.0715 141.218 37.5043C141.727 38.0127 142.119 38.5829 142.397 39.2184C142.827 40.1939 143.043 41.3687 143.043 42.7393C143.043 43.1206 142.947 43.6221 142.758 44.2438C142.531 44.9926 142.277 45.3671 141.998 45.3671L141.827 45.2159L141.961 44.0927C141.961 43.5843 141.431 42.6637 140.37 41.324C139.311 39.9878 138.782 38.9298 138.782 38.1569C138.782 37.8787 138.985 37.1917 139.39 36.1028C139.772 35.062 140.074 34.3509 140.304 33.9731C140.724 33.262 141.954 32.4204 143.995 31.4415C145.998 30.49 147.479 30.0159 148.427 30.0159C149.163 30.0159 149.785 30.3972 150.293 31.1564C150.75 31.8296 150.977 32.5441 150.977 33.3067H150.987Z" fill="#416D3F"/>
<path d="M0.741211 63.7217H3.66186C4.12573 63.7217 4.48652 63.8282 4.74079 64.0377C4.99506 64.2472 5.16686 64.5427 5.2562 64.9205C5.34553 65.3018 5.3902 65.7861 5.3902 66.3735C5.3902 66.9128 5.32148 67.3319 5.1806 67.6342C5.03972 67.9365 4.79576 68.146 4.45216 68.2628C4.74079 68.3212 4.94695 68.4654 5.07752 68.6922C5.20809 68.9223 5.26994 69.2315 5.26994 69.6196L5.24932 73.2127H3.39041V69.4994C3.39041 69.2349 3.33887 69.0632 3.23579 68.991C3.13271 68.9189 2.94373 68.8811 2.67228 68.8811V73.2161H0.741211V63.7217ZM3.12927 67.2357C3.39385 67.2357 3.52786 66.9472 3.52786 66.3735C3.52786 66.1228 3.51755 65.9338 3.4935 65.8102C3.46944 65.6865 3.43165 65.5972 3.37323 65.5491C3.31482 65.501 3.22892 65.477 3.11897 65.477H2.67571V67.2357H3.12927Z" fill="#C8AA50"/>
<path d="M6.16638 72.6802C5.93273 72.2646 5.81934 71.6669 5.81934 70.894C5.81934 70.2585 5.9018 69.7742 6.06673 69.4341C6.23166 69.094 6.46188 68.8467 6.75738 68.6887C7.05288 68.5307 7.50301 68.3555 8.10775 68.1631L8.63691 67.988V67.1601C8.63691 66.9471 8.59567 66.7823 8.50977 66.6689C8.42387 66.5556 8.32423 66.4972 8.20396 66.4972C8.10088 66.4972 8.01154 66.5452 7.93251 66.6414C7.85348 66.7376 7.81569 66.8681 7.81569 67.0296V67.5174H5.93616V67.2529C5.93616 66.4559 6.12171 65.8892 6.4928 65.5491C6.8639 65.209 7.47208 65.0407 8.31048 65.0407C8.98051 65.0407 9.52685 65.2159 9.94605 65.5663C10.3652 65.9166 10.5748 66.4113 10.5748 67.0536V73.2229H8.65065V72.2611C8.55444 72.5943 8.40325 72.852 8.19022 73.034C7.97718 73.2161 7.72979 73.3088 7.44459 73.3088C6.81923 73.3088 6.38972 73.0993 6.15607 72.6836L6.16638 72.6802ZM8.53382 71.6188C8.59567 71.4986 8.6266 71.3474 8.6266 71.1722V68.9154C8.33797 69.0253 8.12837 69.1662 7.99093 69.3345C7.85348 69.5028 7.78476 69.7398 7.78476 70.0421V71.0829C7.78476 71.5604 7.92908 71.8008 8.21427 71.8008C8.36202 71.8008 8.46854 71.739 8.53039 71.6188H8.53382Z" fill="#C8AA50"/>
<path d="M11.1475 70.8735L11.1578 70.2311H13.0923L13.1026 71.1826C13.1026 71.375 13.1404 71.5192 13.2125 71.6189C13.2847 71.7185 13.4084 71.7666 13.5768 71.7666C13.8345 71.7666 13.965 71.557 13.965 71.138C13.965 70.8288 13.9032 70.5849 13.7829 70.4097C13.6627 70.2311 13.4668 70.0456 13.2022 69.8464L12.1748 69.0495C11.8209 68.7781 11.5667 68.4964 11.412 68.2044C11.2574 67.9125 11.1784 67.5037 11.1784 66.9713C11.1784 66.5591 11.2883 66.2053 11.5048 65.9167C11.7213 65.6282 12.0133 65.4049 12.3741 65.2572C12.7349 65.1095 13.1369 65.0374 13.5802 65.0374C15.1505 65.0374 15.9339 65.8171 15.9339 67.38V67.5346H13.9341V67.2255C13.9341 67.0331 13.9032 66.8682 13.8413 66.7343C13.7795 66.5969 13.673 66.5316 13.5252 66.5316C13.3912 66.5316 13.2916 66.5694 13.2228 66.6484C13.1541 66.724 13.1163 66.8304 13.1163 66.9644C13.1163 67.2598 13.2297 67.4865 13.4599 67.6514L14.6557 68.5239C15.0818 68.8399 15.4116 69.1869 15.6384 69.5578C15.8652 69.9288 15.982 70.3994 15.982 70.9662C15.982 71.7185 15.769 72.2956 15.3395 72.7009C14.9134 73.1062 14.3155 73.3089 13.5493 73.3089C11.9481 73.3089 11.1509 72.4982 11.1509 70.8769L11.1475 70.8735Z" fill="#C8AA50"/>
<path d="M16.5777 63.6667H18.5671V65.9201C18.7733 65.3293 19.1684 65.0373 19.7491 65.0373C20.2955 65.0373 20.7078 65.2091 20.9861 65.556C21.2644 65.9029 21.4053 66.377 21.4053 66.9815V73.2161H19.4708V67.1018C19.4708 66.9266 19.4296 66.7823 19.3506 66.6724C19.2681 66.5625 19.1513 66.5075 18.9966 66.5075C18.8626 66.5075 18.7596 66.5659 18.6805 66.6793C18.6049 66.7926 18.5637 66.93 18.5637 67.0949V73.2195H16.5742V63.6702L16.5777 63.6667Z" fill="#C8AA50"/>
<path d="M22.3451 72.6802C22.1114 72.2646 21.998 71.6669 21.998 70.894C21.998 70.2585 22.0805 69.7742 22.2454 69.4341C22.4104 69.094 22.6406 68.8467 22.9361 68.6887C23.2316 68.5307 23.6817 68.3555 24.2865 68.1631L24.8156 67.988V67.1601C24.8156 66.9471 24.7744 66.7823 24.6885 66.6689C24.6026 66.5556 24.5029 66.4972 24.3827 66.4972C24.2796 66.4972 24.1903 66.5452 24.1112 66.6414C24.0322 66.7376 23.9944 66.8681 23.9944 67.0296V67.5174H22.1149V67.2529C22.1149 66.4559 22.3004 65.8892 22.6715 65.5491C23.0426 65.209 23.6508 65.0407 24.4892 65.0407C25.1592 65.0407 25.7056 65.2159 26.1248 65.5663C26.544 65.9166 26.7536 66.4113 26.7536 67.0536V73.2229H24.8294V72.2611C24.7332 72.5943 24.582 72.852 24.3689 73.034C24.1559 73.2161 23.9085 73.3088 23.6233 73.3088C22.9979 73.3088 22.5684 73.0993 22.3348 72.6836L22.3451 72.6802ZM24.7125 71.6188C24.7744 71.4986 24.8053 71.3474 24.8053 71.1722V68.9154C24.5167 69.0253 24.3071 69.1662 24.1696 69.3345C24.0322 69.5028 23.9635 69.7398 23.9635 70.0421V71.0829C23.9635 71.5604 24.1078 71.8008 24.393 71.8008C24.5407 71.8008 24.6472 71.739 24.7091 71.6188H24.7125Z" fill="#C8AA50"/>
<path d="M27.3465 73.3397H28.2742C28.4082 73.3397 28.4735 73.2848 28.4735 73.1748C28.4735 73.1233 28.4701 73.0821 28.4632 73.0546L27.2021 65.13H29.0507L29.415 69.0769L29.5902 71.0898L29.7998 69.0769L30.2293 65.13H32.0882L30.5832 73.642C30.5317 73.958 30.4252 74.1916 30.2671 74.3427C30.1091 74.4939 29.8582 74.5695 29.5215 74.5695H27.343V73.3431L27.3465 73.3397Z" fill="#C8AA50"/>
<path d="M32.7806 72.6802C32.547 72.2646 32.4336 71.6669 32.4336 70.894C32.4336 70.2585 32.5161 69.7742 32.681 69.4341C32.8459 69.094 33.0761 68.8467 33.3716 68.6887C33.6671 68.5307 34.1173 68.3555 34.722 68.1631L35.2512 67.988V67.1601C35.2512 66.9471 35.2099 66.7823 35.124 66.6689C35.0381 66.5556 34.9385 66.4972 34.8217 66.4972C34.7186 66.4972 34.6292 66.5452 34.5502 66.6414C34.4712 66.7376 34.4334 66.8681 34.4334 67.0296V67.5174H32.5539V67.2529C32.5539 66.4559 32.7394 65.8892 33.1139 65.5491C33.485 65.209 34.0932 65.0407 34.9316 65.0407C35.6016 65.0407 36.148 65.2159 36.5672 65.5663C36.9864 65.9166 37.196 66.4113 37.196 67.0536V73.2229H35.2718V72.2611C35.1756 72.5943 35.0244 72.852 34.8113 73.034C34.6017 73.2195 34.3544 73.3088 34.0657 73.3088C33.4404 73.3088 33.0109 73.0993 32.7772 72.6836L32.7806 72.6802ZM35.1481 71.6188C35.2099 71.4986 35.2409 71.3474 35.2409 71.1722V68.9154C34.9522 69.0253 34.7426 69.1662 34.6052 69.3345C34.4677 69.5028 34.4025 69.7398 34.4025 70.0421V71.0829C34.4025 71.5604 34.5468 71.8008 34.832 71.8008C34.9797 71.8008 35.0828 71.739 35.1481 71.6188Z" fill="#C8AA50"/>
<path d="M40.5615 73.2161V63.7217H44.3652V65.556H42.496V67.4006H44.2862V69.1902H42.496V71.368H44.4855V73.2127H40.5615V73.2161Z" fill="#C8AA50"/>
<path d="M45.0825 65.1267H47.017V66.1537C47.0995 65.824 47.2369 65.5526 47.4362 65.3465C47.6355 65.1404 47.9001 65.0374 48.2334 65.0374C48.7797 65.0374 49.1818 65.2057 49.4429 65.5389C49.704 65.8755 49.8346 66.353 49.8346 66.9713V73.2161H47.931V67.1705C47.931 66.9953 47.8967 66.8442 47.8245 66.7171C47.7558 66.5934 47.6458 66.5282 47.4981 66.5282C47.2988 66.5282 47.1682 66.6175 47.1064 66.7995C47.0445 66.9816 47.0136 67.222 47.0136 67.5243V73.2161H45.0791V65.1232L45.0825 65.1267Z" fill="#C8AA50"/>
<path d="M51.1262 72.9688C50.8856 72.7455 50.7276 72.4467 50.652 72.0723C50.5764 71.7013 50.5352 71.2238 50.5352 70.6398L50.5558 66.9918C50.5558 66.4182 50.7001 65.9476 50.9922 65.5835C51.2842 65.2194 51.6931 65.0373 52.2257 65.0373C52.7583 65.0373 53.1397 65.2091 53.3974 65.556V63.6667H55.3319V73.2161H53.3974V72.3539C53.2874 72.6699 53.1363 72.907 52.9507 73.0684C52.7652 73.2299 52.5109 73.3054 52.1948 73.3054C51.724 73.3054 51.3667 73.1921 51.1262 72.9688ZM53.3081 71.5089C53.3665 71.32 53.3974 71.0692 53.3974 70.7498V67.3663C53.3974 67.1292 53.363 66.93 53.2977 66.7686C53.2325 66.6071 53.1122 66.5247 52.9438 66.5247C52.7514 66.5247 52.6243 66.6003 52.5624 66.7514C52.5006 66.9025 52.4697 67.1086 52.4697 67.3663V70.7704C52.4697 71.4471 52.6243 71.7871 52.9335 71.7871C53.1259 71.7871 53.2496 71.6944 53.3081 71.5055V71.5089Z" fill="#C8AA50"/>
<path d="M56.043 70.7979V67.5484C56.043 66.7823 56.2594 66.1709 56.6889 65.7175C57.1185 65.2641 57.7129 65.0374 58.4654 65.0374C59.2179 65.0374 59.8089 65.2641 60.2418 65.7175C60.6748 66.1709 60.8878 66.7789 60.8878 67.5484V70.7979C60.8878 72.4707 60.0803 73.3089 58.4654 73.3089C56.8504 73.3089 56.043 72.4707 56.043 70.7979ZM58.809 71.6463C58.8812 71.5364 58.919 71.3853 58.919 71.1929V67.2358C58.919 66.7652 58.7678 66.5282 58.4654 66.5282C58.163 66.5282 58.0118 66.7652 58.0118 67.2358V71.1929C58.0118 71.3853 58.0496 71.5364 58.1218 71.6463C58.1939 71.7563 58.3108 71.8112 58.4654 71.8112C58.62 71.8112 58.7334 71.7563 58.809 71.6463Z" fill="#C8AA50"/>
<path d="M62.4554 73.2161L61.4727 65.1232H63.1323L63.6752 69.4685L64.139 65.1232H65.8296L66.3828 69.4685L66.8363 65.1232H68.6609L67.6232 73.2161H65.6887L65.1149 68.6166L64.6063 73.2161H62.4622H62.4554Z" fill="#C8AA50"/>
<path d="M69.3027 65.1266H71.1926V66.0678C71.2819 65.7208 71.4331 65.4632 71.6461 65.2949C71.8592 65.1266 72.1615 65.0407 72.5533 65.0407C72.8694 65.0407 73.1443 65.1128 73.3779 65.2571C73.6116 65.4014 73.773 65.5972 73.8693 65.8479C74.0308 65.5663 74.2129 65.3636 74.4122 65.2331C74.6114 65.1025 74.8863 65.0407 75.2402 65.0407C75.8725 65.0407 76.3157 65.2331 76.5631 65.6212C76.8105 66.0094 76.9342 66.5693 76.9342 67.3078L76.9136 73.2229H74.9688V67.2769C74.9688 66.7548 74.8348 66.4903 74.5702 66.4903C74.3847 66.4903 74.2541 66.5796 74.1716 66.7617C74.0892 66.9437 74.0514 67.1567 74.0514 67.4074V73.2229H72.1169V67.2769C72.1169 67.0468 72.0928 66.8647 72.0447 66.7239C71.9966 66.583 71.897 66.5143 71.7423 66.5143C71.543 66.5143 71.4022 66.6105 71.3231 66.8063C71.2407 67.0021 71.2029 67.2357 71.2029 67.5071V73.2229H69.313V65.13L69.3027 65.1266Z" fill="#C8AA50"/>
<path d="M78.1591 72.6184C77.7983 72.1616 77.6162 71.4814 77.6162 70.5746V67.325C77.6162 66.5796 77.8293 66.0129 78.2588 65.6213C78.6848 65.2297 79.2827 65.0339 80.0489 65.0339C81.6055 65.0339 82.382 65.7965 82.382 67.3216V67.909C82.382 68.4998 82.3752 68.9773 82.3614 69.3448H79.5541V70.9146C79.5541 71.1963 79.5816 71.4127 79.6435 71.5707C79.7019 71.7287 79.829 71.8077 80.018 71.8077C80.1658 71.8077 80.2689 71.7631 80.3341 71.6738C80.396 71.5845 80.4338 71.4849 80.4441 71.3715C80.4544 71.2581 80.4613 71.0898 80.4613 70.87V70.0834H82.3855V70.5471C82.3855 71.4917 82.2034 72.1856 81.8391 72.6321C81.4749 73.0787 80.8461 73.302 79.9527 73.302C79.1212 73.302 78.5233 73.0718 78.1625 72.615L78.1591 72.6184ZM80.4578 68.3865V67.3456C80.4578 66.7651 80.3135 66.4732 80.0283 66.4732C79.7053 66.4732 79.5404 66.7651 79.5404 67.3456V68.3865H80.4578Z" fill="#C8AA50"/>
<path d="M83.0777 65.1267H85.0122V66.1537C85.0946 65.824 85.2321 65.5526 85.4314 65.3465C85.6306 65.1404 85.8952 65.0374 86.2285 65.0374C86.7749 65.0374 87.1769 65.2057 87.438 65.5389C87.6992 65.8755 87.8297 66.353 87.8297 66.9713V73.2161H85.9262V67.1705C85.9262 66.9953 85.8918 66.8442 85.8196 66.7171C85.7509 66.5934 85.641 66.5282 85.4932 66.5282C85.2939 66.5282 85.1633 66.6175 85.1015 66.7995C85.0396 66.9816 85.0087 67.222 85.0087 67.5243V73.2161H83.0742V65.1232L83.0777 65.1267Z" fill="#C8AA50"/>
<path d="M89.2163 72.9859C89.0239 72.773 88.9277 72.4295 88.9277 71.9589V66.906H88.3848V65.4358H88.9277V63.7217H90.8072V65.4358H91.3604V66.906H90.8072V71.4505C90.8072 71.5913 90.8175 71.6944 90.8415 71.7596C90.8656 71.8249 90.924 71.8593 91.0168 71.8593C91.0889 71.8593 91.1611 71.8558 91.2264 71.8489C91.2917 71.8421 91.3363 71.8386 91.3604 71.8386V73.1646C91.2504 73.1955 91.0889 73.2264 90.8793 73.2573C90.6697 73.2917 90.4636 73.3088 90.2643 73.3088C89.7558 73.3088 89.4053 73.2023 89.2129 72.9894L89.2163 72.9859Z" fill="#C8AA50"/>
<path d="M91.7939 70.8735L91.8043 70.2311H93.7388L93.7491 71.1826C93.7491 71.375 93.7869 71.5192 93.859 71.6189C93.9312 71.7185 94.0549 71.7666 94.2232 71.7666C94.4809 71.7666 94.6115 71.557 94.6115 71.138C94.6115 70.8288 94.5497 70.5849 94.4294 70.4097C94.3091 70.2311 94.1133 70.0456 93.8487 69.8464L92.8213 69.0495C92.4674 68.7781 92.2132 68.4964 92.0585 68.2044C91.9039 67.9125 91.8249 67.5037 91.8249 66.9713C91.8249 66.5591 91.9348 66.2053 92.1513 65.9167C92.3678 65.6282 92.6564 65.4049 93.0206 65.2572C93.3814 65.1095 93.7834 65.0374 94.2267 65.0374C95.797 65.0374 96.5804 65.8171 96.5804 67.38V67.5346H94.5806V67.2255C94.5806 67.0331 94.5497 66.8682 94.4878 66.7343C94.426 66.5969 94.3195 66.5316 94.1717 66.5316C94.0377 66.5316 93.9381 66.5694 93.8693 66.6484C93.8006 66.724 93.7628 66.8304 93.7628 66.9644C93.7628 67.2598 93.8762 67.4865 94.1064 67.6514L95.3022 68.5239C95.7282 68.8399 96.0581 69.1869 96.2849 69.5578C96.5117 69.9288 96.6285 70.3994 96.6285 70.9662C96.6285 71.7185 96.4155 72.2956 95.9859 72.7009C95.5564 73.1062 94.962 73.3089 94.1958 73.3089C92.5946 73.3089 91.7974 72.4982 91.7974 70.8769L91.7939 70.8735Z" fill="#C8AA50"/>
<path d="M99.8447 63.7217H102.466C103.143 63.7217 103.652 63.9106 103.992 64.285C104.332 64.6594 104.504 65.2159 104.511 65.9544L104.532 70.3994C104.538 71.3337 104.377 72.0379 104.044 72.5119C103.71 72.9825 103.164 73.2195 102.398 73.2195H99.8447V63.7251V63.7217ZM102.088 71.5364C102.436 71.5364 102.607 71.3681 102.607 71.028V66.1296C102.607 65.9167 102.59 65.7552 102.556 65.6487C102.521 65.5422 102.463 65.4701 102.374 65.4323C102.284 65.3945 102.147 65.3774 101.965 65.3774H101.755V71.5329H102.088V71.5364Z" fill="#C8AA50"/>
<path d="M105.737 72.6184C105.376 72.1616 105.194 71.4814 105.194 70.5746V67.325C105.194 66.5796 105.407 66.0129 105.837 65.6213C106.263 65.2297 106.861 65.0339 107.627 65.0339C109.184 65.0339 109.96 65.7965 109.96 67.3216V67.909C109.96 68.4998 109.953 68.9773 109.94 69.3448H107.132V70.9146C107.132 71.1963 107.16 71.4127 107.222 71.5707C107.28 71.7287 107.407 71.8077 107.596 71.8077C107.744 71.8077 107.847 71.7631 107.912 71.6738C107.974 71.5845 108.012 71.4849 108.022 71.3715C108.033 71.2581 108.039 71.0898 108.039 70.87V70.0834H109.964V70.5471C109.964 71.4917 109.781 72.1856 109.417 72.6321C109.053 73.0787 108.424 73.302 107.531 73.302C106.699 73.302 106.101 73.0718 105.741 72.615L105.737 72.6184ZM108.036 68.3865V67.3456C108.036 66.7651 107.892 66.4732 107.606 66.4732C107.283 66.4732 107.119 66.7651 107.119 67.3456V68.3865H108.036Z" fill="#C8AA50"/>
<path d="M110.656 65.1267H112.625V65.556C112.907 65.2091 113.292 65.0374 113.787 65.0374C114.412 65.0374 114.848 65.2469 115.096 65.666C115.343 66.085 115.467 66.669 115.467 67.411V70.4063C115.467 71.0383 115.429 71.557 115.357 71.9589C115.285 72.3608 115.12 72.6837 114.869 72.931C114.618 73.1784 114.24 73.302 113.732 73.302C113.223 73.302 112.876 73.1646 112.625 72.8933V74.8272H110.656V65.1232V65.1267ZM113.433 71.5605C113.484 71.399 113.512 71.162 113.512 70.8528V67.4144C113.512 67.1327 113.484 66.9197 113.433 66.772C113.381 66.6243 113.264 66.5522 113.079 66.5522C112.776 66.5522 112.625 66.8339 112.625 67.3938V70.9422C112.625 71.2135 112.656 71.4265 112.718 71.5776C112.78 71.7288 112.903 71.8043 113.089 71.8043C113.275 71.8043 113.381 71.7219 113.433 71.5605Z" fill="#C8AA50"/>
<path d="M116.369 72.6802C116.135 72.2646 116.021 71.6669 116.021 70.894C116.021 70.2585 116.104 69.7742 116.269 69.4341C116.434 69.094 116.664 68.8467 116.96 68.6887C117.255 68.5307 117.705 68.3555 118.31 68.1631L118.839 67.988V67.1601C118.839 66.9471 118.798 66.7823 118.712 66.6689C118.626 66.5556 118.526 66.4972 118.41 66.4972C118.306 66.4972 118.217 66.5452 118.138 66.6414C118.059 66.7376 118.021 66.8681 118.021 67.0296V67.5174H116.142V67.2529C116.142 66.4559 116.327 65.8892 116.698 65.5491C117.069 65.209 117.678 65.0407 118.516 65.0407C119.186 65.0407 119.732 65.2159 120.152 65.5663C120.571 65.9166 120.78 66.4113 120.78 67.0536V73.2229H118.856V72.2611C118.76 72.5943 118.609 72.852 118.399 73.034C118.19 73.2161 117.939 73.3088 117.654 73.3088C117.028 73.3088 116.599 73.0993 116.365 72.6836L116.369 72.6802ZM118.736 71.6188C118.798 71.4986 118.829 71.3474 118.829 71.1722V68.9154C118.54 69.0253 118.331 69.1662 118.193 69.3345C118.056 69.5028 117.987 69.7398 117.987 70.0421V71.0829C117.987 71.5604 118.131 71.8008 118.416 71.8008C118.564 71.8008 118.667 71.739 118.733 71.6188H118.736Z" fill="#C8AA50"/>
<path d="M121.526 65.1267H123.461V66.0232C123.557 65.7072 123.725 65.4599 123.963 65.2881C124.203 65.1164 124.499 65.027 124.852 65.027V66.6415C124.581 66.6415 124.279 66.6793 123.952 66.7583C123.622 66.8373 123.461 66.9266 123.461 67.0297V73.2196H121.526V65.1267Z" fill="#C8AA50"/>
<path d="M125.952 72.9859C125.759 72.773 125.663 72.4295 125.663 71.9589V66.906H125.12V65.4358H125.663V63.7217H127.543V65.4358H128.096V66.906H127.543V71.4505C127.543 71.5913 127.553 71.6944 127.577 71.7596C127.601 71.8249 127.659 71.8593 127.752 71.8593C127.824 71.8593 127.896 71.8558 127.962 71.8489C128.027 71.8421 128.072 71.8386 128.096 71.8386V73.1646C127.986 73.1955 127.824 73.2264 127.615 73.2573C127.405 73.2917 127.199 73.3088 127 73.3088C126.491 73.3088 126.141 73.2023 125.948 72.9894L125.952 72.9859Z" fill="#C8AA50"/>
<path d="M128.703 65.1266H130.593V66.0678C130.682 65.7208 130.833 65.4632 131.047 65.2949C131.26 65.1266 131.562 65.0407 131.954 65.0407C132.27 65.0407 132.545 65.1128 132.778 65.2571C133.012 65.4014 133.173 65.5972 133.27 65.8479C133.431 65.5663 133.613 65.3636 133.813 65.2331C134.012 65.1025 134.287 65.0407 134.641 65.0407C135.273 65.0407 135.716 65.2331 135.964 65.6212C136.211 66.0094 136.335 66.5693 136.335 67.3078L136.314 73.2229H134.369V67.2769C134.369 66.7548 134.235 66.4903 133.971 66.4903C133.785 66.4903 133.654 66.5796 133.572 66.7617C133.49 66.9437 133.452 67.1567 133.452 67.4074V73.2229H131.517V67.2769C131.517 67.0468 131.493 66.8647 131.445 66.7239C131.397 66.583 131.297 66.5143 131.139 66.5143C130.94 66.5143 130.799 66.6105 130.72 66.8063C130.638 67.0021 130.6 67.2357 130.6 67.5071V73.2229H128.71V65.13L128.703 65.1266Z" fill="#C8AA50"/>
<path d="M137.562 72.6184C137.202 72.1616 137.02 71.4814 137.02 70.5746V67.325C137.02 66.5796 137.233 66.0129 137.662 65.6213C138.088 65.2297 138.686 65.0339 139.452 65.0339C141.009 65.0339 141.785 65.7965 141.785 67.3216V67.909C141.785 68.4998 141.778 68.9773 141.765 69.3448H138.957V70.9146C138.957 71.1963 138.985 71.4127 139.047 71.5707C139.105 71.7287 139.232 71.8077 139.421 71.8077C139.569 71.8077 139.672 71.7631 139.737 71.6738C139.799 71.5845 139.837 71.4849 139.847 71.3715C139.858 71.2581 139.865 71.0898 139.865 70.87V70.0834H141.789V70.5471C141.789 71.4917 141.607 72.1856 141.242 72.6321C140.878 73.0787 140.249 73.302 139.356 73.302C138.525 73.302 137.927 73.0718 137.566 72.615L137.562 72.6184ZM139.861 68.3865V67.3456C139.861 66.7651 139.717 66.4732 139.432 66.4732C139.109 66.4732 138.944 66.7651 138.944 67.3456V68.3865H139.861Z" fill="#C8AA50"/>
<path d="M142.483 65.1267H144.417V66.1537C144.5 65.824 144.637 65.5526 144.837 65.3465C145.036 65.1404 145.3 65.0374 145.634 65.0374C146.18 65.0374 146.582 65.2057 146.843 65.5389C147.104 65.8755 147.235 66.353 147.235 66.9713V73.2161H145.331V67.1705C145.331 66.9953 145.297 66.8442 145.225 66.7171C145.156 66.5934 145.046 66.5282 144.898 66.5282C144.699 66.5282 144.569 66.6175 144.507 66.7995C144.445 66.9816 144.414 67.222 144.414 67.5243V73.2161H142.479V65.1232L142.483 65.1267Z" fill="#C8AA50"/>
<path d="M148.62 72.9859C148.427 72.773 148.331 72.4295 148.331 71.9589V66.906H147.788V65.4358H148.331V63.7217H150.211V65.4358H150.764V66.906H150.211V71.4505C150.211 71.5913 150.221 71.6944 150.245 71.7596C150.269 71.8249 150.327 71.8593 150.42 71.8593C150.492 71.8593 150.564 71.8558 150.63 71.8489C150.695 71.8421 150.74 71.8386 150.764 71.8386V73.1646C150.654 73.1955 150.492 73.2264 150.283 73.2573C150.073 73.2917 149.867 73.3088 149.668 73.3088C149.159 73.3088 148.809 73.2023 148.616 72.9894L148.62 72.9859Z" fill="#C8AA50"/>
</svg>
