<svg version="1.2" xmlns="http://www.w3.org/2000/svg" viewBox="0 0 1429 1539" width="1429" height="1539">
	<title>logo (16)-svg</title>
	<style>
		.s0 { fill: #95c11f } 
	</style>
	<g id="zain_logo">
		<path id="Combined-Shape" fill-rule="evenodd" class="s0" d="m603.1 1147c63 0 117.2 22.5 153.6 61.8c35.3 37.9 54.9 86.8 54.9 159.4v168.9c-1.7 0.1-3.9 0.2-5.5 0.2c-22.9 0-41.9-7.2-54.9-20.1c-12-12.2-18.5-28.9-18.5-53.3v-79.1c0-62.6-15.3-102.3-41.3-128c-22.2-22-51.6-34.6-88.1-34.6c-72.8 0-121.4 51.3-121.4 126.3c0 76.3 48.4 118 103.7 118c51.7 0 83.7-31.7 94.9-89.8c13.8 20.4 20.2 42 20.2 62c0 54.1-46.7 100.1-124.1 100.1c-100.5 0-177.7-75.4-177.7-188.4c0-115.1 83.6-203.4 204.2-203.4zm753.2 4c22.4 0 40.8 7.1 53.6 20.1c12.1 12.2 18.6 28.9 18.6 53.2v243.5c0 21.3-5.9 40-17.2 52.1c-10 10.7-24.8 17.4-43.2 17.4c-24.5 0-43.2-10.4-67-41.3c-24.2-31.3-150.3-196.2-183.5-239.5c-0.8-1.1-1.5-1.6-2.5-1.6c-1.2 0-2.2 1.1-2.2 3.2v279c-1.7 0.1-2.7 0.2-4.4 0.2c-22.4 0-40.7-7.1-53.5-20.1c-12.2-12.2-18.5-28.9-18.5-53.3v-243.4c0-21.4 5.7-40 16.9-52.1c10.2-10.7 24.9-17.4 43.3-17.4c24.7 0 43.4 10.2 67.1 41.3c22.7 29.7 126.8 165.6 183.5 239.5c0.8 1 1.4 1.5 2.4 1.5c1.2 0 2.1-1 2.1-3.1v-279.1c1.8-0.1 2.9-0.1 4.5-0.1zm-467.5-1.5c22.8 0.1 41.9 7.1 54.8 20.1c12 12.2 18.5 28.9 18.5 53.2v314.3c-1.8 0.1-4 0.2-5.7 0.1c-22.7 0-41.9-7.1-54.6-20c-12.1-12.3-18.7-28.9-18.7-53.3v-314.3c1.8 0 4-0.1 5.7-0.1zm-604.9 5.7c31.2 0 50.4 5.9 63.4 16.9c10.7 9 17.7 23.6 17.7 38.7c0 24.3-8.9 41-51.4 75.4c-24.6 20-185.2 149.7-209.4 169.1c-1.8 1.4-2.7 2.9-2.7 4.1c0 1.9 1.7 3 4.8 3h177.7c34.1 0 52.1 4.8 66.1 17.6c12.1 11.1 17.8 28.6 17.8 48.9v2.5h-286.1c-31.2 0-50.6-5.9-63.5-16.8c-10.7-9-17.8-23.5-17.8-38.7c0-24.2 8.5-41.2 51.1-75.4c37-29.7 185.2-149.3 210.7-169.7c1.9-1.6 2.8-2.5 2.8-4c0-1.6-1.8-2.5-4.9-2.5h-179.5c-28.2 0-49.2-9.2-60.2-25c-7-10.2-10-25.6-10-39.7c0-1.5 0-3 0-4.4zm638.8-35c-25.8 0-46.7-20.9-46.7-46.7c0-25.8 20.9-46.6 46.7-46.6c25.9 0 46.8 20.8 46.8 46.6c0 25.8-20.9 46.7-46.8 46.7zm501.1-913.3l4.7 0.1v275.1c0 92.4-31.3 177.4-83.8 245.2c-52.5 67.7-126.2 118.2-211.3 141.3c-9.6-17.6-15.1-37.8-15.1-59.3c0-42.8 22.3-80.5 55.2-102.8c71.2-46.2 119.1-125.3 122-215.9l0.1-8.5v-151.9c0-41 10.9-69 31.3-89.6c21.6-21.7 53.8-33.8 92.1-33.8zm-631.5 661.1c-43.8 0-79.2-35.3-79.2-79.1c0-43.7 35.4-79.1 79.2-79.1c43.8 0 79.1 35.4 79.1 79.1c0 43.8-35.3 79.1-79.1 79.1zm185.7 0c-43.7 0-79.1-35.3-79.1-79.1c0-43.7 35.4-79.1 79.1-79.1c43.8 0 79.2 35.4 79.2 79.1c0 43.8-35.4 79.1-79.2 79.1zm-678-663.8c130.2 0 208.9 77.6 208.9 168.8c0 33.4-10.8 69.6-34 104.2c-19.1-97.8-72.8-151.2-159.9-151.2c-92.9 0-174.5 70.2-174.5 198.6c0 126.2 81.8 212.6 204.5 212.6c61.3 0 110.8-21.2 148.2-58.3c43.8-43.2 69.4-110.1 69.4-215.3v-133.3c0-41 10.9-69 31.3-89.6c21.6-21.7 53.9-33.8 92.2-33.8c2.9 0 6.5 0 9.5 0.2v284.4c0 10.3-0.3 20.4-0.7 30.2h206c75.6 0 136.9-61.3 136.9-136.8v-54.6c0-41 10.8-69 31.2-89.6c21.7-21.7 53.9-33.8 92.3-33.8c2.9 0 6.5 0 9.4 0.2v133.4l-0.2 44.4c0 148.9-120.7 269.5-269.6 269.5h-232c-15.5 40.8-37.7 75.2-65.9 105.4c-61.3 65.9-152.5 103.8-258.5 103.8c-202.9 0-343.8-148.5-343.8-342.2c0-190.3 130.2-317.2 299.3-317.2zm48.1 388.8c-43.8 0-79.2-35.4-79.2-79.1c0-43.8 35.4-79.2 79.2-79.2c43.7 0 79.1 35.4 79.1 79.2c0 43.7-35.4 79.1-79.1 79.1zm1001.3-434c-43.8 0-79.2-35.3-79.2-79.1c0-43.8 35.4-79.2 79.2-79.2c43.8 0 79.2 35.4 79.2 79.2c0 43.8-35.4 79.1-79.2 79.1z" />
		<path id="Combined-Shape-Copy" fill-rule="evenodd" class="s0" d="m603.1 1147c63 0 117.2 22.5 153.6 61.8c35.3 37.9 54.9 86.8 54.9 159.4v168.9c-1.7 0.1-3.9 0.2-5.5 0.2c-22.9 0-41.9-7.2-54.9-20.1c-12-12.2-18.5-28.9-18.5-53.3v-79.1c0-62.6-15.3-102.3-41.3-128c-22.2-22-51.6-34.6-88.1-34.6c-72.8 0-121.4 51.3-121.4 126.3c0 76.3 48.4 118 103.7 118c51.7 0 83.7-31.7 94.9-89.8c13.8 20.4 20.2 42 20.2 62c0 54.1-46.7 100.1-124.1 100.1c-100.5 0-177.7-75.4-177.7-188.4c0-115.1 83.6-203.4 204.2-203.4zm753.2 4c22.4 0 40.8 7.1 53.6 20.1c12.1 12.2 18.6 28.9 18.6 53.2v243.5c0 21.3-5.9 40-17.2 52.1c-10 10.7-24.8 17.4-43.2 17.4c-24.5 0-43.2-10.4-67-41.3c-24.2-31.3-150.3-196.2-183.5-239.5c-0.8-1.1-1.5-1.6-2.5-1.6c-1.2 0-2.2 1.1-2.2 3.2v279c-1.7 0.1-2.7 0.2-4.4 0.2c-22.4 0-40.7-7.1-53.5-20.1c-12.2-12.2-18.5-28.9-18.5-53.3v-243.4c0-21.4 5.7-40 16.9-52.1c10.2-10.7 24.9-17.4 43.3-17.4c24.7 0 43.4 10.2 67.1 41.3c22.7 29.7 126.8 165.6 183.5 239.5c0.8 1 1.4 1.5 2.4 1.5c1.2 0 2.1-1 2.1-3.1v-279.1c1.8-0.1 2.9-0.1 4.5-0.1zm-467.5-1.5c22.8 0.1 41.9 7.1 54.8 20.1c12 12.2 18.5 28.9 18.5 53.2v314.3c-1.8 0.1-4 0.2-5.7 0.1c-22.7 0-41.9-7.1-54.6-20c-12.1-12.3-18.7-28.9-18.7-53.3v-314.3c1.8 0 4-0.1 5.7-0.1zm-604.9 5.7c31.2 0 50.4 5.9 63.4 16.9c10.7 9 17.7 23.6 17.7 38.7c0 24.3-8.9 41-51.4 75.4c-24.6 20-185.2 149.7-209.4 169.1c-1.8 1.4-2.7 2.9-2.7 4.1c0 1.9 1.7 3 4.8 3h177.7c34.1 0 52.1 4.8 66.1 17.6c12.1 11.1 17.8 28.6 17.8 48.9v2.5h-286.1c-31.2 0-50.6-5.9-63.5-16.8c-10.7-9-17.8-23.5-17.8-38.7c0-24.2 8.5-41.2 51.1-75.4c37-29.7 185.2-149.3 210.7-169.7c1.9-1.6 2.8-2.5 2.8-4c0-1.6-1.8-2.5-4.9-2.5h-179.5c-28.2 0-49.2-9.2-60.2-25c-7-10.2-10-25.6-10-39.7c0-1.5 0-3 0-4.4zm638.8-35c-25.8 0-46.7-20.9-46.7-46.7c0-25.8 20.9-46.6 46.7-46.6c25.9 0 46.8 20.8 46.8 46.6c0 25.8-20.9 46.7-46.8 46.7zm501.1-913.3l4.7 0.1v275.1c0 92.4-31.3 177.4-83.8 245.2c-52.5 67.7-126.2 118.2-211.3 141.3c-9.6-17.6-15.1-37.8-15.1-59.3c0-42.8 22.3-80.5 55.2-102.8c71.2-46.2 119.1-125.3 122-215.9l0.1-8.5v-151.9c0-41 10.9-69 31.3-89.6c21.6-21.7 53.8-33.8 92.1-33.8zm-631.5 661.1c-43.8 0-79.2-35.3-79.2-79.1c0-43.7 35.4-79.1 79.2-79.1c43.8 0 79.1 35.4 79.1 79.1c0 43.8-35.3 79.1-79.1 79.1zm185.7 0c-43.7 0-79.1-35.3-79.1-79.1c0-43.7 35.4-79.1 79.1-79.1c43.8 0 79.2 35.4 79.2 79.1c0 43.8-35.4 79.1-79.2 79.1zm-678-663.8c130.2 0 208.9 77.6 208.9 168.8c0 33.4-10.8 69.6-34 104.2c-19.1-97.8-72.8-151.2-159.9-151.2c-92.9 0-174.5 70.2-174.5 198.6c0 126.2 81.8 212.6 204.5 212.6c61.3 0 110.8-21.2 148.2-58.3c43.8-43.2 69.4-110.1 69.4-215.3v-133.3c0-41 10.9-69 31.3-89.6c21.6-21.7 53.9-33.8 92.2-33.8c2.9 0 6.5 0 9.5 0.2v284.4c0 10.3-0.3 20.4-0.7 30.2h206c75.6 0 136.9-61.3 136.9-136.8v-54.6c0-41 10.8-69 31.2-89.6c21.7-21.7 53.9-33.8 92.3-33.8c2.9 0 6.5 0 9.4 0.2v133.4l-0.2 44.4c0 148.9-120.7 269.5-269.6 269.5h-232c-15.5 40.8-37.7 75.2-65.9 105.4c-61.3 65.9-152.5 103.8-258.5 103.8c-202.9 0-343.8-148.5-343.8-342.2c0-190.3 130.2-317.2 299.3-317.2zm48.1 388.8c-43.8 0-79.2-35.4-79.2-79.1c0-43.8 35.4-79.2 79.2-79.2c43.7 0 79.1 35.4 79.1 79.2c0 43.7-35.4 79.1-79.1 79.1zm1001.3-434c-43.8 0-79.2-35.3-79.2-79.1c0-43.8 35.4-79.2 79.2-79.2c43.8 0 79.2 35.4 79.2 79.2c0 43.8-35.4 79.1-79.2 79.1z" />
	</g>
</svg>